<svg version="1.1" xmlns="http://www.w3.org/2000/svg" xmlns:xlink="http://www.w3.org/1999/xlink" viewBox="0 0 180 34">
  <defs>
    <path id="L8WZsc27Eo6pa" d="M7.978 19.366V.391H.906v18.975h7.072z"/>
    <path id="L8WZsc27Eo6pc" d="M0 .858h17.979v17.98H0z"/>
    <path id="L8WZsc27Eo6pe" d="M.965.67h21.253v21.253H.965z"/>
  </defs>
  <g stroke="none" stroke-width="1" fill="none" fill-rule="evenodd">
    <path d="M55.629 14.955v.546c0 1-1.085 1.584-1.95 1.08a.15.15 0 01-.017-.01c-.571-.342-1.241-.513-2.011-.513-1.207 0-2.21.423-3.008 1.27-.798.845-1.197 1.904-1.197 3.178 0 1.303.385 2.372 1.155 3.208.778.836 1.772 1.255 2.979 1.255.77 0 1.449-.167 2.039-.499l.063-.037c.857-.513 1.947.082 1.947 1.081v.493c0 .513-.306.982-.78 1.178-1.042.433-2.084.65-3.126.65-2.148 0-3.945-.695-5.39-2.083-1.444-1.397-2.166-3.13-2.166-5.203 0-2.072.732-3.82 2.195-5.246 1.464-1.427 3.26-2.139 5.389-2.139 1.083 0 2.118.205 3.106.616.47.196.772.665.772 1.175m5.731 5.495c0 1.33.356 2.413 1.07 3.25.731.846 1.653 1.27 2.765 1.27 1.188 0 2.147-.41 2.88-1.227.731-.846 1.098-1.92 1.098-3.222 0-1.303-.367-2.377-1.098-3.223-.733-.827-1.683-1.24-2.852-1.24-1.102 0-2.024.418-2.765 1.255-.732.845-1.098 1.891-1.098 3.136m8.826-6.9h.796c.67 0 1.213.543 1.213 1.213v11.46c0 .67-.543 1.213-1.213 1.213h-.796c-.67 0-1.213-.544-1.213-1.214v-.24c-1.32 1.235-2.742 1.853-4.263 1.853-1.92 0-3.507-.694-4.762-2.082-1.245-1.416-1.867-3.184-1.867-5.303 0-2.082.622-3.816 1.867-5.204 1.245-1.387 2.804-2.08 4.677-2.08 1.615 0 3.065.664 4.348 1.995v-.398c0-.67.543-1.213 1.213-1.213m16.893 7.029c0-1.33-.361-2.414-1.083-3.25-.732-.846-1.654-1.27-2.766-1.27-1.179 0-2.134.41-2.866 1.227-.732.817-1.097 1.892-1.097 3.222 0 1.301.365 2.376 1.097 3.222.722.827 1.673 1.24 2.852 1.24 1.112 0 2.029-.418 2.751-1.254.741-.836 1.112-1.882 1.112-3.137m-8.84 13.477h-.782c-.67 0-1.213-.543-1.213-1.213v-18.08c0-.67.543-1.212 1.213-1.212h.782c.67 0 1.213.543 1.213 1.213v.298c1.264-1.264 2.699-1.896 4.305-1.896 1.911 0 3.484.704 4.719 2.11 1.255 1.397 1.882 3.16 1.882 5.289 0 2.082-.622 3.816-1.867 5.203-1.236 1.379-2.795 2.068-4.677 2.068-1.625 0-3.079-.651-4.362-1.953v6.96c0 .67-.543 1.213-1.213 1.213m19.076-17.512v9.68c0 .67-.543 1.212-1.213 1.212h-.78c-.67 0-1.215-.543-1.215-1.213v-9.679h-.155c-.67 0-1.213-.543-1.213-1.213v-.568c0-.67.543-1.213 1.213-1.213h.155V9.673c0-.67.544-1.213 1.214-1.213h.781c.67 0 1.213.542 1.213 1.213v3.876h1.282c.67 0 1.213.543 1.213 1.213v.568c0 .67-.543 1.213-1.213 1.213h-1.282zm7.556 3.907c0 1.33.357 2.413 1.07 3.25.731.846 1.653 1.27 2.766 1.27 1.188 0 2.148-.41 2.88-1.227.731-.846 1.097-1.92 1.097-3.222 0-1.303-.365-2.377-1.097-3.223-.733-.827-1.683-1.24-2.852-1.24-1.102 0-2.024.418-2.766 1.255-.731.845-1.097 1.891-1.097 3.136m8.826-6.9h.796c.67 0 1.213.543 1.213 1.213v11.46c0 .67-.543 1.213-1.213 1.213h-.796c-.67 0-1.213-.544-1.213-1.214v-.24c-1.322 1.235-2.742 1.853-4.263 1.853-1.92 0-3.507-.694-4.762-2.082-1.245-1.416-1.867-3.184-1.867-5.303 0-2.082.621-3.816 1.866-5.204 1.245-1.387 2.804-2.08 4.677-2.08 1.615 0 3.065.664 4.348 1.995v-.398c0-.67.544-1.213 1.214-1.213m7.662-3.664a1.975 1.975 0 001.475-.613c.408-.408.613-.903.613-1.483 0-.579-.205-1.069-.613-1.468a2.02 2.02 0 00-1.483-.613c-.57 0-1.06.204-1.469.613a1.99 1.99 0 00-.612 1.454c0 .6.211 1.105.632 1.517a2.11 2.11 0 001.456.593m-.389 3.665c-.668 0-1.214.545-1.214 1.212v11.48c0 .66.534 1.193 1.193 1.193h.821c.658 0 1.193-.534 1.193-1.194V14.762c0-.667-.546-1.213-1.213-1.213h-.78zm7.27 0h.795c.67 0 1.213.542 1.213 1.212v.07c1.122-1.112 2.386-1.668 3.792-1.668 1.616 0 2.875.51 3.78 1.526.778.864 1.168 2.276 1.168 4.234v7.298c0 .67-.543 1.213-1.214 1.213h-.795c-.67 0-1.213-.543-1.213-1.213V19.68c0-1.368-.19-2.314-.57-2.837-.37-.532-1.046-.798-2.025-.798-1.065 0-1.82.352-2.267 1.055-.437.694-.656 1.906-.656 3.636v5.487c0 .67-.543 1.213-1.213 1.213h-.795c-.67 0-1.213-.543-1.213-1.213v-11.46c0-.67.543-1.213 1.213-1.213" fill="#FFF"/>
    <path d="M144.645 14.255l3.268 7.093 3.253-7.091a1.215 1.215 0 011.104-.708h.889c.896 0 1.483.938 1.09 1.744l-5.27 10.843c-.442.912-1.743.91-2.184-.003l-5.23-10.843a1.214 1.214 0 011.095-1.741h.883c.474 0 .904.276 1.102.706m21.474 4.369c-.447-1.71-1.525-2.566-3.236-2.566-.39 0-.756.06-1.098.178a3.15 3.15 0 00-.934.513c-.28.224-.521.492-.72.806-.2.314-.351.67-.456 1.07h6.444zm2.538 2.623h-9.196c.086 1.141.456 2.05 1.112 2.723.656.666 1.497 1 2.524 1 .798 0 1.459-.192 1.98-.572.41-.303.866-.813 1.366-1.528a.773.773 0 011.008-.236l1.379.77a.771.771 0 01.268 1.1c-.285.42-.58.795-.883 1.127a7.053 7.053 0 01-1.497 1.255 6.016 6.016 0 01-1.725.72 8.417 8.417 0 01-2.011.228c-2.071 0-3.735-.665-4.99-1.996-1.254-1.34-1.881-3.117-1.881-5.332 0-2.195.608-3.973 1.824-5.332 1.226-1.34 2.852-2.01 4.876-2.01 2.044 0 3.66.651 4.848 1.953 1.178 1.293 1.768 3.085 1.768 5.375a.77.77 0 01-.77.755z" fill="#FFF" opacity=".65"/>
    <g transform="translate(171 8.069)">
      <mask id="L8WZsc27Eo6pb" fill="#fff">
        <use xlink:href="#L8WZsc27Eo6pa"/>
      </mask>
      <path d="M5.483 8.474v9.68c0 .67-.543 1.212-1.213 1.212h-.782c-.67 0-1.213-.543-1.213-1.213V8.474H2.12c-.67 0-1.214-.543-1.214-1.213v-.568c0-.67.544-1.213 1.214-1.213h.155V1.604c0-.67.543-1.213 1.213-1.213h.782c.67 0 1.213.542 1.213 1.213V5.48h1.281c.67 0 1.214.543 1.214 1.213v.568c0 .67-.544 1.213-1.214 1.213h-1.28z" fill="#FFF" opacity=".65" mask="url(#L8WZsc27Eo6pb)"/>
    </g>
    <path d="M32.278 17.914A7.513 7.513 0 0021.655 7.29l-5.22 5.215 10.628 10.627 5.215-5.218z" fill="#FFF" opacity=".85"/>
    <g transform="translate(2 4.295)">
      <mask id="L8WZsc27Eo6pd" fill="#fff">
        <use xlink:href="#L8WZsc27Eo6pc"/>
      </mask>
      <path d="M12.759 2.994A7.513 7.513 0 002.136 13.617l5.216 5.22L17.98 8.211l-5.22-5.217z" fill="#FFF" opacity=".65" mask="url(#L8WZsc27Eo6pd)"/>
    </g>
    <g transform="translate(6.615 10.065)">
      <mask id="L8WZsc27Eo6pf" fill="#fff">
        <use xlink:href="#L8WZsc27Eo6pe"/>
      </mask>
      <path d="M22.218 11.296L11.591 21.923.964 11.296 11.591.67l10.627 10.627zm-6.454 1.145a1.615 1.615 0 10-2.284-2.285 1.615 1.615 0 002.284 2.285z" fill="#FFF" mask="url(#L8WZsc27Eo6pf)"/>
    </g>
  </g>
</svg>
