<svg xmlns="http://www.w3.org/2000/svg" viewBox="0 0 731 1024">
  <path fill="#fff" d="M0 0h731v1024H0z"/>
  <path fill="#2D6A9F" d="M541.752 52.21c54.251-3.054 110.433 21.277 128.57 75.838a99.18 99.18 0 0 1-5.713 76.483c-22.53 44.657-73.461 65.563-119.287 76.94-6.758 1.678-14.735 2.977-21.25 5.164l-.526.18c15.953 21.776 32.684 58.65 28.85 86.29l34.447.001c8.456.003 20.794-.528 28.68 1.492a43.65 43.65 0 0 1 19.423 10.977c9.153 8.993 13.145 21.29 13.205 33.91l-.113 38.749c.005 8.15.547 24.262-1.078 31.351a43.03 43.03 0 0 1-11.482 20.804c-10.326 10.272-21.75 13.717-35.967 13.594-10.736-.092-21.61.028-32.359.02l-81.16-.037c-2.962 2.745-14.304 14.702-17.69 13.784-.663-2.525.036-10.435.223-13.539q-.437.01-.873.012c-15.305.06-25.388-7.598-32.012-21.244-5.115-10.538-4.23-21.313-4.251-32.635l-.02-25.563c-24.316 5.401-61.576 7.98-81.42 22.899-4.599 3.456-6.34 8.19-9.964 12.366-1.586.478-.817.46-2.39.125-.425-2.257-.024-6.387.252-8.734 3.88-32.919-27.141-52.958-45.52-75.523-13.036-16.005-20.154-28.172-26.57-47.526l-.99-.296c-14.095 9.232-21.572 7.4-34.756 12.52-3.216 4.529 1.1 15.035 4.669 18.561 1.714 1.694 4.48 1.856 6.597 4.5.333 1.76.5.996-.292 2.406-.323.102-33.976-6.805-36.683-7.396a251 251 0 0 1-35.675-10.9c-17.245-6.864-33.31-16.346-46.438-29.343-45.422-44.968-56.288-118.746-33.335-177.212 23.514-59.902 82.704-96.156 145.248-70.96 53.664 21.618 71.564 73.406 49.373 125.231-4.463 10.507-9.868 20.767-14.36 31.298-6.88 16.126-9.07 29.6-2.091 46.232 8.455-22.207 25.921-42.501 45.831-55.237 33.35-21.333 65.361-27.232 103.723-19.198-2.56-11.066-3.844-20.01-4.76-31.252-6.17-75.618 57.317-131.22 129.934-135.131"/>
  <path fill="#fff" d="M540.008 56.208c5.436-.83 15.533-.285 21.08.027 23.164 1.304 44.791 8.217 64.48 20.766a98.52 98.52 0 0 1 43.353 61.752 95.13 95.13 0 0 1-13.358 73.181c-29.457 45.594-89.877 61.295-139.436 71.929-25.54 5.726-64.657 10.336-83.526 28.655 9.39-37.283-11.877-80.27-16.197-118.089-8.866-77.63 49.213-130.826 123.604-138.22"/>
  <path fill="#2D6A9F" d="M582.691 74.467c3.54.796 21.076 5.465 23.001 7.203 6.312 5.696 18.32 15.788 23.837 21.857-6.108 4.696-13.006 8.717-19.385 13.757a184 184 0 0 1 10.464-2.253c3.196-.607 10.854-2.405 13.514-.597.839 5.165.55 24.895.577 30.945-6.74-.569-19.241-3.417-26.516-4.64-6.447-1.084-19.25-3.069-25.096-4.728-5.042 3.842-8.856 6.988-13.554 11.22.701 1.999 1.94 4.687 2.799 6.696a661 661 0 0 0 23.532-1.763l.47 12.954c.128 3.51 1.64 9.657-.357 12.529-2.678 1.944-16.52 1.455-20.97 1.643-.497 3.512-1.542 6.803-2.522 10.206 5.525 3.759 14.062 8.594 18.988 12.762-5.04 7.165-10.037 14.941-14.833 22.3-5.246-3.54-13.229-9.903-18.39-13.865-3.255 2.92-6.103 4.578-9.784 6.83 2.477 7.677 4.986 15.205 6.997 23.023-5.88.772-21.07 6.047-24.007 5.314-2.526-1.865-6.195-17.475-7.512-21.681-3.755-.287-6.373-.865-10.029-1.623l-10.566 21.406-4.907-2.432a466 466 0 0 1-17.51-8.624c2.667-6.492 7.564-15.042 10.993-21.323-3.356-3.008-5.328-5.319-8.276-8.719-6.81 3.013-15.902 6.802-22.852 9.303-1.946-4.467-5.969-18.657-7.725-24.251 6.964-1.414 15.077-3.817 22.026-5.693-.738-5.675-.615-10.796-.583-16.499-6.818-2.376-13.689-4.103-20.528-6.67 1.747-6.757 4.997-16.163 7.124-23.15 5.715 1.605 15.664 5.91 22.13 8.059 2.834-4.076 4.811-6.237 8.232-9.621-3.434-7.107-8.565-15.078-12.517-22.2 6.303-3.637 16.064-8.05 22.823-11.265 1.902 2.935 8.817 18.035 10.796 22.008 4.35-1.145 8.437-1.495 12.883-1.845 1.403-6.231 3.894-17.822 4.366-23.913 3.366.436 22.921 5.057 25.48 6.291 1.57 3.054-7.199 18.157-5.235 24.113 1.15 1.052.797 1.055 2.074 1.234 6.003-6.446 10.875-13.248 16.368-19.094 3.492 2.815 7.756 7.661 10.929 11.07 1.802-13.984 1.588-31.47 3.251-46.274"/>
  <path fill="#5AB1FC" d="M520.12 125.965c25.731-2.675 48.751 16.031 51.398 41.765 2.645 25.732-16.087 48.732-41.824 51.348-25.694 2.613-48.648-16.083-51.29-41.775-2.64-25.691 16.028-48.667 41.717-51.338"/>
  <path fill="#2D6A9F" d="M519.158 138.645c18.794-3.276 36.651 9.41 39.744 28.235 3.092 18.826-9.768 36.558-28.623 39.467-18.596 2.867-36.032-9.778-39.082-28.345s9.424-36.126 27.961-39.357"/>
  <path fill="#fff" d="M522.569 142.203c16.613-1.32 31.176 11.02 32.604 27.624 1.427 16.604-10.817 31.247-27.412 32.781-16.748 1.55-31.555-10.832-32.995-27.59s11.037-31.482 27.803-32.815"/>
  <path fill="#5AB1FC" d="M629.964 117.665c1.013 1.127.593 19.677.58 22.97l-35.664-6.333c-2.371-.353-5.835-.723-7.958-1.604l-.07-.706c5.755-6.384 33.43-12.017 43.112-14.327m-23.802-29.621c3.977 2.757 13.01 11.37 16.534 14.88-9.253 6.778-19.992 13.088-29.226 20.057-5.947 4.49-11.729 9.806-17.551 14.618-2.141 1.771-6.008 5.298-8.412 6.21l-.558-.708c.474-3.578 19.17-15.053 22.922-22.595 5.22-10.494 10.995-21.933 16.29-32.462"/>
  <path fill="#5AB1FC" d="M586.063 79.828a788 788 0 0 1 16.779 4.947c-5.12 11.05-10.886 21.763-15.738 32.932-1.55 3.57-2.123 6.012-5.531 8.25l-1.123-1.03c2.289-1.726 2.652-2.536 2.904-5.757.994-12.663 2.652-26.757 2.709-39.342m-53.192 21.413c6.123 1.093 12.556 3.353 19.307 4.514-2.178 6.16-3.96 12.825-5.758 19.136l-.175.402c-1.307.74-8.817-2.387-11.045-2.814-2.188-.418-4.287-.905-6.568-1.218 1.642-6.617 2.564-13.333 4.24-20.02m-33.001 4.207c1.696 1.278 7.853 15.577 9.22 18.584-1.638.668-15.243 7.603-15.05 7.583-3.304-5.924-7.01-11.834-10.552-17.635 4.023-2.729 11.488-5.853 16.382-8.532m44.647 114.063.8.168c.936 1.543 4.532 14.36 5.753 17.855-6.11 1.37-11.345 2.594-17.336 4.365l-.17-.017c-1.13-.92-5.198-15.571-5.998-18.165 7.003-.695 10.557-1.823 16.95-4.206m-49.927-5.297c5.98 3.368 9.53 5.202 15.881 7.682a1087 1087 0 0 1-8.812 16.932 405 405 0 0 0-16.171-7.413c2.797-5.64 6.125-11.61 9.101-17.201m76.308-21.09c3.176 1.347 12.144 7.713 15.087 9.757l-10.497 16.104c-1.36-.342-12.773-9.344-14.784-10.885 4.987-5.802 6.606-8.144 10.194-14.976m-96.823-7.001 1.125-.086c.767.666 5.598 12.263 6.968 14.516-4.682 1.284-12.347 4.53-17.106 6.391-1.107.375-1.05.45-2.145.102-1.685-2.817-4.408-13.477-5.365-16.95a299 299 0 0 1 16.523-3.973m116.992-29.893.706.397c.997 3.167 1.078 14.38 1.17 18.353q-8.503.092-17 .429c-.315-7.34-.67-10.704-2.326-17.846zm-127.682-15.98 17.902 6.605c-3.21 5.792-4.385 8.764-6.181 14.918l-.19.297c-.97.127-14.587-4.105-16.862-4.682 1.932-5.825 3.675-11.235 5.331-17.139"/>
  <path fill="#fff" d="M568.804 115.763c3.384 3.253 6.935 9.228 11.646 9.163l1.123 1.03c-4.88 2.67-12.171 10.604-17.305 13.785-2.506-2.798-6.206-6.076-9.008-8.7 4.75-4.541 9.283-10.206 13.544-15.278M186.84 86.71c33.019-4.025 75.574 16.618 91.757 45.954 15.772 27.68 11.422 59.102-1.475 86.99-11.945 25.83-27.897 49.874-11.728 78.228-3.872 16.661-3.625 27.881-.84 44.76-11.832 9.63-21.848 8.844-34.774 13.44-9.583 3.407-3.609 16.84.07 23.593-8.025-2.217-17.592-3.558-25.978-5.425-26.539-6.373-49.203-14.486-70.682-31.814-30.476-24.667-46.744-62.404-50.908-100.643C74.868 173.708 111.177 93.447 186.84 86.71"/>
  <path fill="#2D6A9F" d="M170.746 131.21c10.732-.854 23.876 3.488 32.667 9.444 12.939 8.614 22.384 24.463 24.992 39.42 3.835 21.984-.351 39.073-14.939 55.925-7.133 10.262-8.492 22.95-7.024 35.044.645 5.313 5.185 5.358 5.603 7.311 1.715 9.016 2.45 19.45 2.976 28.638.337 5.893 4.305 26.59 2.81 31.18-1.73 1.926-4.732 3.452-7.5 3.984-7.733 1.49-16.256 3.677-24.093 4.326-.79.065-2.369-.847-3.037-1.242-2.765-3.19-8.023-28.102-9.516-33.671-1.45-5.412-7.336-20.982-7.115-25.481.845-1.572 2.038-1.835 3.73-2.592-3.7-12.621-7.675-27.995-19.91-34.407-5.403-3.227-11.354-5.958-16.089-10.18-41.722-37.198-19.477-103.793 36.445-107.699"/>
  <path fill="#fff" d="M167.547 135.682a21 21 0 0 1 1.702-.203 49.8 49.8 0 0 1 35.955 11.881 58.7 58.7 0 0 1 14.963 20.072c5.94 13.272 7.882 39.02.15 51.277-9.546 15.133-20.073 24.918-18.6 45.037.179 2.436 2.373 11.28 1.028 12.827-1.462.417-1.666.59-3.017.105-1.462-2.543-1.218-4.731-1.931-7.318-3.654-13.247-5.714-26.628-5.349-40.344.135-5.051 4.347-21.028 1-22.68-2.483 1.638-3.475 9.37-3.965 12.256-3.536 20.803 1.015 39.7 6.47 59.634-3.481.619-7.197 1.425-10.684 2.121q-2.385-10.629-4.918-21.224c-3.429-13.019-7.976-27.133-16.368-37.921-1.999-2.57-6.712-9.87-10.285-8.023l-.453 1.247c1.382 2.718 6.826 8.035 8.299 10.106 11.17 15.713 15.903 38.312 19.554 56.668l-6.833 1.409c-2.765-11.144-8.828-29.03-18.758-35.128-5.288-3.374-10.91-5.962-15.994-9.677-31.51-23.028-29.463-73.014 3.57-93.635 8.57-5.35 14.553-7.213 24.464-8.487"/>
  <path fill="#5AB1FC" d="m209.319 301.633.391.005c1.599 1.423 1.798 10.897 1.998 13.59-6.709 2.183-23.709 5.075-31.432 6.564-1.057-2.102-2.45-10.95-3.035-13.859zm1.943 17.96.398.026c1.327 1.208 1.664 6.113 1.95 8.17-8.524 2.454-19.83 4.212-29.097 6.614l-.726-.167c-1.041-2.153-1.647-6.157-2.13-8.631 9.981-1.893 19.712-3.703 29.605-6.012m-3.417-28.968c1.222-.155.664-.277 1.72.424.696 2.166.826 3.66 1.11 5.907a946 946 0 0 1-34.026 6.837c-.378.018-1.075-.122-1.482-.184-1.034-1.577-1.091-4.358-1.32-6.365q17.041-3.096 33.998-6.619m-.999-10.556c.541-.07 1.046.04 1.616.104.95 1.478.669 3.38.651 5.247-11.377 2.669-24.659 5.637-36.074 7.71l-1.465-.294c-.841-1.228-.978-3.456-1.207-5.02 10.61-1.633 25.953-5.149 36.479-7.747m6.744 52.051c.33.106.542.381.84.653.2 4.82-3.399 5.138-7.556 5.998-6.885 1.423-13.887 2.66-20.824 3.806l-2.484-4.094c9.118-2.461 20.394-4.114 30.025-6.363"/>
  <path fill="#fff" d="M381.178 219.214c14.35-.227 22.258.603 36.098 3.804 2.093 6.266 3.615 13.2 5.303 20.11 5.267 21.556 11.956 44.948 6.408 67.125-1.126 4.499-5.298 9.593-5.649 14.523-.07.984.104.839.727 1.536.661.044 2.165.115 2.604-.394 5.64-6.537 9.19-13.051 17.274-17.284 22.486-11.774 50.247-16.03 75.042-21.166l.202.25c16.596 21.012 32.453 57.88 29.123 85.308l-48.694.159c-8.809.007-25.72-.638-33.612 1.217a45.8 45.8 0 0 0-22.02 12.226c-8.86 8.886-12.573 19.307-12.481 31.621l-.102 22.318c-29.154 7.85-66.31 6.14-89.14 28.662-.894-25.41-10.148-37.921-27.445-55.243-24.943-24.978-45.71-49.867-47.971-86.555-3.783-61.419 58.254-104.808 114.333-108.217"/>
  <path fill="#2D6A9F" d="m341.629 270.649.321-.023c23.273-1.592 41.841 10.949 37.91 36.182-2.686 17.227-21.304 27.32-24.314 44.39-.41 2.322-.09 5.928.058 8.346-6.139-.23-13.975.345-20.324.531-2.064-9.239.088-16.758 4.257-25.067 5.36-10.552 17.654-19.913 19.094-32.155 1.634-13.9-16.923-15.801-26.135-10.857-7.068 3.794-9.542 7.002-12.215 14.529-4.885-4.489-10.132-9.754-14.996-14.387 9.884-12.36 20.66-18.889 36.344-21.49m2.241 97.724a12.282 12.282 0 1 1-8.677 15.063c-1.77-6.556 2.117-13.305 8.678-15.063"/>
  <path fill="#5AB1FC" d="M475.278 377.204c29.27-.943 59.943-.159 89.356-.15l26.724.023c6.45.01 14.62-.304 20.741.885a38.25 38.25 0 0 1 19.746 10.538c15.124 15.017 12.215 34.743 12.087 54.14l.077 33.997c.03 17.166-6.73 30.458-22.366 38.567-10.14 5.258-18.483 4.507-29.393 4.41l-107.266.388c-3.922 2.859-9.843 8.736-13.571 12.236.301-2.862 1.31-11.279-.387-11.38-8.803-.492-15.489-1.147-22.484-7.079-16.497-13.99-13.548-38.215-13.37-57.995.106-11.955-1.225-36.022 1.341-47.358a39.16 39.16 0 0 1 8.63-16.903c7.908-9.178 18.256-13.449 30.135-14.32"/>
  <path fill="#2D6A9F" d="M465.015 406.466q71.383.536 142.767.149c3.046.003 9.27-.484 11.175 2.057 3.177 4.238 1.875 10.412-1.806 13.915-3.926.912-13.628.463-18.128.465l-34.588.014-61.721.014c-10.676.002-21.25.012-32.023-.076-7.217-.06-9.381-2.137-8.698-10.016.25-2.87 1.239-4.347 3.022-6.522"/>
  <path fill="#fff" d="m466.352 408.64 98.859-.004c15.778.013 31.902-.101 47.694.219 1.398.155 2.984.052 3.979 1.217 2.292 2.684 1.32 8.096-.999 10.445-8.043.367-17.587.125-25.728.11l-44.733-.08c-25.076-.03-50.144.075-75.225.097-4.57.005-6.3-1.443-6.195-6.538.05-2.401.646-3.77 2.348-5.466"/>
  <path fill="#2D6A9F" d="m466.288 443.105 106.992-.167 26.579-.08c4.411-.016 11.439-.372 15.602.41 7.177 1.346 6.626 12.736.48 16.172l-103.05-.042-30.622.118c-3.736.015-12.445.487-15.715-.164-7.328-1.456-6.237-12.483-.266-16.247"/>
  <path fill="#fff" d="M466.706 445.677c35.29-.888 72.975-.209 108.484-.24l27.268-.022c5.039 0 17.16-2.003 15.605 6.334-.49 2.63-.714 3.304-2.625 5.255l-99.672.002-29.876.07c-5.55.031-11.068.132-16.642.01-3.57-.078-5.39-1.598-5.34-5.384.04-2.999.61-3.973 2.798-6.025"/>
  <path fill="#2D6A9F" d="M473.355 479.737q26.211-.173 52.421-.05c8.58.017 17.38-.14 25.956.205 1.469.059 3.46.455 4.556 1.486 3.122 2.936 3.309 10.109.365 13.244-1.798 1.891-5.216 1.757-7.678 1.796l-54.828-.064c-8.502-.003-16.848.036-25.47-.103-7.186-.115-8.964-9.301-5.274-14.087 2.043-2.652 6.782-2.385 9.952-2.427"/>
  <path fill="#fff" d="m467.793 482.105 53.518.014c10.091-.02 20.184-.172 30.27.079 6.381.159 6.12 9.017 1.812 11.7l-60.465.058c-8.547.027-17.393.329-25.87-.28-2.72-.194-3.636-6.524-2.784-8.6.735-1.792 1.933-2.172 3.519-2.97"/>
  <path fill="#2D6A9F" d="M195.446 555.44c-13.582-2.389-21.76-9.192-24.544-24.25-4.627-25.03 18.596-57.281 45.031-39.785 3.313 2.192 7.325 7.573 7.865 11.858l-.084.941c22.509-10.703 39.983-7.117 62.331 1.556 13.484 5.232 22.033 12.628 20.436 28.186-.827 8.062-2.97 10.175-9.001 15.318q.5 4.178 1.14 8.34c3.31 1.818 4.981 2.692 7.213 5.758a17.7 17.7 0 0 1 3.15 13.475c-.852 5.017-3.674 9.15-7.82 12.035-.152 3.593-.56 7.373-1.055 10.934-3.308 23.835-9.939 34.27-34.37 26.342-.106 3.742-.057 7.905-.863 11.522 17.62 1.855 27.7 9.478 37.217 24.063 7.222 11.067 12.703 22.158 18.56 33.938a3954 3954 0 0 1 22.87 46.778c4.59 9.348 10.038 19.324 13.992 28.921.583 1.414.394 3.806.29 5.384 3.712 2.62 8.446 5.349 12.396 7.734 7.147-1.785 16.437-5.349 23.618-7.662 16.711-5.392 33.639-11.719 50.422-16.81 3.984-13.046 7.612-28.62 11.209-41.988 4.336-16.12 9.876-34.055 13.571-50.196 7.037-3.094 18.183-6.802 25.665-9.591l49.428-18.661 65.669-24.698c11.796-4.408 23.6-8.925 35.479-13.072 7.093-2.475 17.403.808 15.051 10.215-2.68 10.73-5.54 21.414-8.347 32.113l-17.37 64.387c-3.25 11.824-7.3 25.17-10.001 37.016 37.376-3.763 61.062-22.165 68.208-59.44 7.355-38.366.53-89.683-21.054-122.18-2.043 2.072-4.218 4.875-7.336 4.34l-.44-.875c.453-3.537 2.754-4.783 5.525-7.09-9.942-13.086-20.934-38.006 2.727-46.792 6.696-2.486 13.626 3.938 14.845 10.82 2.446 13.822-4.536 25.124-11.886 36.146a189.5 189.5 0 0 1 24.594 83.923c3.374 55.286-14.83 101.434-76.63 105.354-3.235 11.811-6.44 24.55-9.955 36.212-4.668 2.406-11.621 4.798-16.523 6.784-11.195 4.534-23.087 8.733-34.06 13.689l93.785 33.797c6.793 2.492 13.682 4.963 20.44 7.541 3.147 1.2 14.486 4.677 15.065 7.505-.691 1.75-1.105 2.385-3.14 3.292-8.023 3.57-16.837 6.67-25.061 9.804l-48.337 18.56a15472 15472 0 0 1-148.225 56.205 4225 4225 0 0 0-73.759 27.128c-10.607 4.02-23.132 8.305-33.26 12.861-6.556-2.663-15.954-5.634-22.768-7.99a2984 2984 0 0 0-44.694-15.16l-93.552-31.749a277 277 0 0 1-35.011 8.112c-47.971 7.805-101.571-12.76-121.326-59.869-12.78-30.484-3.064-61.861 11.537-89.66 9.244-17.603 21.789-33.92 18.447-55.05-6.78 3.771-15.114 8.113-23.117 6.599-7.381-1.4-12.045-7.92-10.359-15.446a14.65 14.65 0 0 1 6.767-9.277c11.513-6.918 22.79 1.993 28.602 11.855a40 40 0 0 0 2.213-1.657c12.637-10.183 19.762-19.74 21.595-36.174a55.3 55.3 0 0 1-23.582.45c-57.582-11.09-41.064-79.066 4.262-68.452a50.17 50.17 0 0 1 31.291 22.999c9.503 15.588 9.082 33.622-7.696 43.589a51 51 0 0 1-.34 4.616c-2.105 17.454-12.938 28.41-25.89 38.528 4.627 22.936-7.813 39.339-17.838 58.098-12.042 22.53-21.966 49.736-15.72 75.457 5.578 22.965 20.442 41.46 40.255 53.835a114.22 114.22 0 0 0 73.362 15.932c11.726-1.386 23.727-4.428 35.28-7.113-15.21-4.463-32.657-10.968-47.93-16.095a2288 2288 0 0 1-28.012-9.54c-4.045-1.4-8.1-2.771-12.142-4.178-1.956-.678-3.1-1.635-2.834-3.713 3.802-3.506 41.958-15.789 49.458-18.024.179-30.07-.213-58.483 1.142-88.668a1157 1157 0 0 1 2.34-38.068c.271-3.356 1.743-15.26 1.677-17.673-.31-11.283-4.163-17.268-2.94-29.893a43.4 43.4 0 0 1 6.47-18.97c8.449-13.553 22.644-24.71 37.502-30.284 6.666-2.501 13.315-5.48 20.262-7.066 3.666-8.816 5.655-16.958 6.942-26.384-22.417-20.397-25.305-32.081-28.324-61.602"/>
  <path fill="#fff" d="m223.798 503.263-.084.941c-12.658 7.179-20.756 16.793-25.299 30.801-1.236 3.812-1.594 8.427-2.719 11.376l-.621.271c-11.649-9.684 8.442-44.41 23.583-42.936 1.137.11 3.905-.301 5.14-.453m332.075 305.704c2.937.078 21.467 7.626 25.95 9.233a7893 7893 0 0 1 103.266 37.154l-202.98 77.335c-39.975 14.975-82.912 29.35-122.2 45.416-26.199-9.469-53.397-18.295-79.844-27.264l-170.572-57.855c19.429-6.898 39.376-13.525 58.647-20.537 17.817-6.263 38.285-13.94 56.089-19.545 5.239 2.35 65.772 24.294 66.62 24.165.79-.129 1.48-1.714 1.867-2.385 1.73-.264 7.357 2.62 9.385 3.549-10.186 4.292-28.651 10.911-37.407 15.46.12 3.456.214 6.92.28 10.376 7.211 3.906 16.656 6.14 24.274 9.404 8.902 3.813 19.765 6.713 28.294 11.04 56.15-21.001 111.882-43.617 167.933-65.04q.031-5.941-.091-11.874c-4.259-1.757-8.758-3.178-13.133-4.642 14.852-5.741 30.068-12.432 44.951-17.766 1.36 14.631 3.51 30.241 4 44.851-16.841 6.563-34.91 14.496-51.725 20.402-.223 3.335-.071 7.105-.015 10.483a604 604 0 0 0 23.327 8.84c19.959-8.305 40.375-15.481 60.38-23.672 8.842-3.628 17.894-6.777 26.592-10.747.12-4.463.101-7.862-.123-12.325-7.848-2.078-15.86-4.535-23.67-6.812-3.639-13.461-6.89-29.22-10.164-42.96z"/>
  <path fill="#fff" d="m654.124 614.502.639-.044.457.536c-.664 3.694-1.841 5.846-2.552 8.916-1.91 8.238-4.185 16.228-6.42 24.384l-16.587 61.178-11.957 43.689c-2.12 7.976-5.443 21.93-8.354 29.342-4.15 2.335-17.01 7.076-21.842 8.983a2499 2499 0 0 0-42.84 17.195c-1.38-5.349-6.384-28.42-8.407-31.334-3.072-.429-19.151 6.42-23.091 7.92.423 10.053 2.28 24.55 3.319 34.975a3412 3412 0 0 1-52.112 21.016c-9.253 3.863-18.645 7.326-27.834 11.382 5.973-18.866 11.185-41.81 16.357-61.197l30.27-112.68c17.26-7.684 41.851-15.732 60.037-22.597a6839 6839 0 0 1 110.917-41.664"/>
  <path fill="#2D6A9F" d="M585.969 710.044c1.604 1.064 1.781 1.79 1.476 3.515-2.519 2.262-54.93 21.364-61.818 23.892-1.32-1.293-2.126-1.9-1.296-3.692 3.376-2.092 23.209-9.29 28.117-11.011 10.999-3.87 22.687-8.948 33.52-12.704"/>
  <path fill="#5AB1FC" d="M198.38 654.02c.154 1.699-2.138 6.045-2.344 8.141-.709 7.207-.55 16.796 5.262 22.05 4.76 4.301 10.968 3.426 16.807 2.988-1.25 1.876-1.962 3.953-1.851 6.214.424 8.65 13.32 6.96 18.8 6.653 2.28 11.396 4.094 23.489 5.794 35.014 3.946 26.757 9.15 54.164 12.45 80.942a491 491 0 0 0-16.374-8.94c-2.236-14.99-8.925-34.92-13.249-49.622-4.167-13.46-8.132-27.25-13.332-40.332-2.639-6.642-12.692-23.937-19.592-25.457-1.706.468-1.09.106-2.268 1.686.908 2.538 12.06 12.748 14.96 19.256 6.387 14.334 10.507 28.315 15.182 43.261 5.4 17.267 10.162 34.262 13.964 51.979-3.715 1.713-16.35 4.791-16.614 8.99l.84.521c4.012.257 13.636-4.484 18.939-6.012a162 162 0 0 1 10.117 5.441c16.808 9.833 36.194 17.295 52.417 27.942-4.902 7.64-8.362 18.217-10.08 27.128-27.147-10.711-57.341-19.251-83.649-31.984-2.026-1.1-3.657-3.127-4.424-5.277-11.82-33.183-26.27-65.474-37.141-98.943-2.63-8.091-4.814-15.339-6.043-23.69-4.198-28.51 18.32-47.278 41.43-57.95"/>
  <path fill="#fff" d="M247.79 564.964c.089.709-1.354 7.497-1.384 10.44a16.1 16.1 0 0 0 4.773 11.741c3.16 3.158 6.067 4.038 10.06 3.993 9.507-.108 10.722-9.837 14.808-15.932.936-.808 2.683-1.38 3.775-1.337 1.547.06 1.502 1.247 1.677 2.938.539 5.235 2.456 8.067 5.923 11.905-2.845.111-4.754-.24-6.626 1.726l.06 1.067c3.19 2.722 6.776.817 9.168-1.888l6.594.87c-.65 37.263-14.617 42.33-44.737 24.77-2.71-1.58-8.842-7.15-11.342-5.775-.808 4.096 15.769 24.117 19.419 27.37.197 3.614.467 5.958 1.035 9.535 2.718 14.853 5.779 31.08 2.618 45.975-15.4-7.95-38.46-27.517-44.579-44.056 6.562-13.8 11.71-38.59 12.073-53.718a298 298 0 0 1-7.098-1.104c-5.638-4.075-9.025-12.026-7.003-18.873 1.146-3.878 4.523-7.769 8.956-5.941 4.209 1.733 5.574 5.826 7.157 9.69 7.374-3.258 7.502-7.594 14.672-13.396"/>
  <path fill="#2D6A9F" d="M268.533 595.747c2.407.854 2.774 4.536 5.508 5.584 2.47.947 6.458-.784 8.676.03.329 1.692.17 1.258-.612 3.16-6.279 2.287-17.78-.887-13.572-8.774m-39.335-16.487c1.227.676 1.579 1.144 1.55 2.453-1.482 1.798-2.32 2.227-1.503 4.427 2.538 1.814 2.24 1.62 1.965 4.533-6.572-1.203-7.088-7.524-2.012-11.412m-5.69-7.348c2.25.4 4.426 1.212 4.737 3.782-3.243.38-1.804-1.686-6.142-.91-.473 1.81-.736 2.975-1.484 4.714l-.732.252c-.798-3.2 1.027-6.12 3.621-7.838"/>
  <path fill="#5AB1FC" d="M287.186 650.312c2.29 1.656 7.416 7.423 8.15 10.042 5.598 19.967 8.002 42.387 10.256 62.894q5.25 47.153 8.989 94.445c-6.584 2.342-15.14 4.777-21.924 6.934l-.711.085c-1.084-1.585-3.947-26.378-4.39-29.72a3242 3242 0 0 0-6.75-45.716c-2.643-17.766-5.649-38.396-9.636-55.9 10.661-2.852 21.28-5.438 12.702-19.011 6.078-8.694 7.369-14.191 3.314-24.053"/>
  <path fill="#fff" d="M266.89 695.016c3.4 4.506 18.394 116.721 20.359 131.517-2.796.686-5.736 1.657-8.502 2.514-4.068-2.028-8.388-4.428-12.432-6.57-2.991-1.357-5.412-2.692-8.266-4.277a3789 3789 0 0 0-18.824-118.176c6.904-.103 22.146-1.203 27.664-5.008M68.847 622.69c29.832-.719 60.595 40.712 33.318 59.049-2.478-10.894-6.355-17.103-18.428-16.464-8.788 2.8-12.055 9.92-9.807 18.588-7.435-2.384-12.89-4.328-19.412-9.159-13.535-10.024-17.038-28.294-6.304-41.762 5.644-7.082 11.837-9.246 20.633-10.252M334.23 815.993c5.768-.45 37.362 20.145 45.626 20.902.833.07 4.756 1.913 5.722 2.363-9.192 3.228-20.394 6.927-29.09 10.89-7.126-1.478-13.795-.2-20.897.893-10.302 1.785-22.14 2.742-30.725-4.563.092-1.471.088-1.507-.185-2.957-2.058-2.799-16.377-9.526-20.358-11.61 16.298-4.92 33.58-10.726 49.908-15.918m199.133-33.448c1.364 1.321 18.66 77.986 21.012 86.94l-17.108 6.506-3.374 1.306c-2.858-1.27-4.78-2.192-7.495-3.727-1.361-11.475-2.116-22.8-3.309-34.269-1.735-16.674-4.398-34.469-5.19-51.143zm-67.446 62.961c3.03.772 8.615 2.864 11.766 3.942-16.219 7.084-36.441 14.068-53.292 20.666l-106.986 41.83a2711 2711 0 0 0-26.7-9.796c-5.976-2.121-13.474-4.45-19.128-7.048 3.45-1.45 7.069-2.857 10.55-4.263 8.74-3.192 16.834-7.063 25.86-10.155 2.667 1.364 5.721 2.678 8.472 3.92-7.091 2.607-15.577 5.606-22.192 9.19 6.371 3.271 17.505 7.17 24.582 10.09 7.305-3.998 28.14-10.646 36.82-14.167zM442.096 765l.59.179c.18.885-11.363 43.452-12.5 48.879-5.735-.436-27.362-1.135-30.858-3.927l-.006-1.129c.514-.392 1.77-1.35 2.031-1.856 1.305-2.521-5.812-6.17-7.449-7.198-5.526-3.9-13.262-8.69-19.002-12.161q33.752-10.938 67.194-22.787"/>
  <path fill="#fff" d="m472.127 673.836 6.756 4.149c-3.121 9.723-6.054 22.363-8.879 32.505a8682 8682 0 0 0-26.816 100.84c-3.714 13.996-7.414 28.964-11.534 42.767-2.703.428-3.806.257-5.735-1.757-1.59-3.627 4.823-24.2 6.203-29.499a5433 5433 0 0 1 15.075-56.32c8.238-30.434 15.942-62.68 24.93-92.685M300.13 849.777c4.33 2.213 11.397 5.698 15.984 6.334 18.222 2.535 26.649-6.62 45.769-.607-3.7-.286-19.405-1.257-20.964 2.113l.532.943c3.058.507 7.468-.122 10.722-.221 6.233-.186 10.485.257 16.43 1.492-10.845 4.17-28.005-.593-33.042 1.62l-.124 1.136c.864 1.893 3.93 1.628 6.205 1.778 9.796.643 18.992 4.52 26.394 11.004-8.08.022-9.58-1.785-16.88-5.398-3.27-1.207-10.872-4.849-12.727-.9 1.265 1.693 20.116 4.263 20.392 11.333-2.691.95-20.925-10.626-27.105-9.176-2.927 3.942 2.085 7.205 4.97 9.19 5.137 3.52 11.503 4.449 17.509 5.563-1.518.685-6.78 2.97-8.276 2.82-18.466-1.785-36.113-11.996-53.226-18.787a101.8 101.8 0 0 1 7.438-20.237"/>
  <path fill="#5AB1FC" d="M362.912 785.445c10.027 5.127 22.63 14.546 33.184 20.48-14.2 8.883-14.03 11.61-22.065 24.071l-.192.293c-8.658-3.949-25.665-12.74-33.8-17.595 2.826-13.789 10.603-21.115 22.873-27.25"/>
  <path fill="#fff" d="M648.475 605.018c2.603-.284 5.88.725 7.304 3.011-1.188 2.754-11.76 5.654-15.203 6.93l-29.29 10.92c-42.243 15.889-86.412 31.51-128.178 48.245-2.001.03-6.742-2.737-8.662-3.796zm-434.741 42.926c.772.193.495.169 1.215.839l.09.353c4.342 16.365 28.756 36.66 43.261 45.155l-16.432 1.145c-4.731.186-16.029 1.152-19.817-1.32-4.36-2.845 1.709-6.475.841-10.656-3.473-3.512-11.368 1.526-16.58-.997-2.394-1.157-3.515-2.298-4.58-4.892-2.659-6.472-2.217-14.526.282-20.945 2-5.137 6.99-6.736 11.72-8.682m178.434 164.893c3.353.493 8.58 2.592 13.286 3.17 7.96.986 15.483 1.507 23.46 2.121-1.001 3.185-1.86 7.334-2.641 10.647-3.574-.82-10.053-2.885-13.177-.764l.154.536c2.957 2.92 7.823 3.485 11.854 4.306l-1.805 6.62c-5.584-1.322-11.563-2.736-14.556 3.184 1.352 4.456 5.299 11.204 3.88 15.482-8.29 9.847-15.661-17.317-20.262-20.445-3.8-2.578-9.885-4.456-14.303-6.19 3.8-7.863 7.768-12.876 14.11-18.667m-107.64-287.59.563.506c9.833 8.893 8.596 18.282 9.24 30.962-8.371 3.32-10.208 5.656-12.993 14.147-2.263-.01-3.442.368-5.938.22l-.44-1.115c-2.238-7.705-4.355-11.93-12.662-13.708 10.256-8.812 17.459-18.368 22.23-31.012"/>
  <path fill="#2D6A9F" d="M285.38 547.518c3.418-.137 5.215-.331 7.014 2.902.117 1.894.339 1.23-.61 2.688l-1.393-.023c-2.55-1.077-6.74-.874-7.73-3.112.924-1.731.791-1.262 2.718-2.455"/>
  <path fill="#fff" d="M264.309 642.176c5.778.295 11.13.986 15.721 4.948a15.46 15.46 0 0 1 5.36 10.66c.487 7.002-3.422 11.511-7.666 16.377 2.914 3.033 3.775 3.994 5.017 7.995-2.457 5.39-8.474 5.884-13.863 7.39.67-19.533-1.003-28.11-4.57-47.37m408.776-124.61c5.453-.401 9.105 1.598 10 7.506 1.822 12.024-3.863 21.912-10.606 31.323-10.251-10.729-17.107-31.565.606-38.829m-413.326 41.481c5.867.8 9.514 3.18 11.532 8.903a16.08 16.08 0 0 1-.722 12.463c-1.928 3.856-4.422 5.782-8.41 7.156-13.532.112-15.94-16.315-8.363-24.471 1.814-1.954 3.66-2.838 5.963-4.05"/>
  <path fill="#2D6A9F" d="M259.262 567.27c5.69 2.115 6.1 8.338.307 10.913-6.22-2.28-5.668-7.672-.307-10.913"/>
  <path fill="#fff" d="M521.404 874.613c2.22 3.691 6.365 4.684 10.36 6.19-5.118 1.843-38.967 16.053-40.9 15.925-3.834-1.386-8.25-3.292-12.082-4.835zM51.728 715.6c9.386-.493 15.118 4.07 19.584 12.09-3.834 2.349-5.736 3.163-9.82 4.84-6.065 2.236-15.127 3.95-18.044-4.077a8.46 8.46 0 0 1 .412-6.64c1.713-3.485 4.366-5.078 7.868-6.213M389.5 842.536c.762-.186.513-.114 1.365.085 1.873 2.357 4.192 6.72 5.755 9.455-4.136 1.65-19.307 8.026-22.836 8.233l-.61-.792c-3.821-4.549-6.645-3.7-9.287-6.784 1.472-2.37 21.854-8.898 25.614-10.197M84.007 669.495c10.161-.703 12.446 5.433 14.328 13.63-2.261.614-4.062.94-6.359 1.35-5.492.933-17.567 2.506-14.557-7.382 1.204-3.956 3.035-5.62 6.588-7.598m210.661-109.574c1.14 5.25 7.53 36.801-5.491 24.846-1.804-1.656-3.053-3.241-3.33-5.693-.685-2.15-.798-4.289-1.02-6.536-1.784-6.61 4.832-10.524 9.841-12.617"/>
  <path fill="#2D6A9F" d="M284.827 572.538c10.805-9.141 12.173 13.585 1.02 6.536-.685-2.15-.798-4.289-1.02-6.536"/>
  <path fill="#fff" d="M299.477 562.176c7.67 2.465 7.46 14.011 4.28 20.123-.724 1.045-1.106 1.42-1.997 2.34-.506-1.59-1.96-19.104-2.283-22.463m17.932 240.692c1.543 1.114 9.117 8.948 9.82 10.619l-.84.55c-2.376.607-5.095 1.578-7.456 2.363zm238.928 57.842c3.328 1.113 11.095 2.848 13.304 4.262l.054.657-2.12.95c-2.879 1.164-5.788 2.128-8.724 3.128zm-200.055 3.912c4.35.093 13.712 4.056 15.392 8.441-1.896-.528-12.406-6.912-15.392-8.44"/>
  <path fill="#2D6A9F" d="M411.751 842.286c2.919-.271 7.565-.95 10.118.493-2.688.407-7.497.22-10.118-.493M92.923 426.16c1.128-.148 2.593-.18 3.738-.207a48.8 48.8 0 0 1 35.241 13.697 49.3 49.3 0 0 1 15.256 35.603c.218 30.29-24.073 33.995-34.03 56.674-3.35 7.627-2.873 31.933-2.795 41.22-2.253.214-5.698.202-8.049.263l-18.177-.046c-1.15-10.343.722-31.084-2.445-40.43-7.613-20.757-29.53-25.919-32.857-49.87-4.05-29.142 15.872-52.19 44.118-56.905"/>
  <path fill="#fff" d="M93.627 428.162c5.69-.636 11.912.057 17.383 1.7a48.02 48.02 0 0 1 28.678 23.407 45 45 0 0 1 3.434 34.23c-5.35 17.357-17.7 21.58-27.52 35.3-2.818 3.939-4.916 12.276-8.544 14.174-1.208.07-1.839.252-2.843-.397-.298-3.891 1.387-21.998 1.921-26.286 6.357-4.87 13.521-14.751 10.537-23.986-.387-1.198-1.564-1.445-2.646-1.735-7.644 1.629-9.456 18.001-9.723 24.39-4.323 1.095-7.365 1.42-11.717 1.827-.317-4.908-1.894-27.748-9.957-25.902-1.672 2.03-1.382 5.902-.294 8.15l.598.041c1.043-2.025.975-3.896 1.152-6.198 5.894 8.722 5.624 13.856 6.396 24.182-13.326-2.335-20.473-9.35-23.718-22.596a35.8 35.8 0 0 1 4.151-27.504c5.224-8.535 12.164-13.033 21.734-15.316 20.787-4.014 39.295 14.949 38.959 35.266-.05 2.976-.542 7.122-.316 9.868l.594-.128c4.853-7.591.397-24.124-4.526-31.048-29.737-41.821-83.371 2.608-56.827 42.284 5.005 7.483 11.273 9.825 19.855 11.25.183 7.998.695 15.644.804 23.826l-6.135-.098c-6.943-25.081-31.098-29.923-34.565-55.318-3.705-27.135 17.38-49.437 43.135-53.383m-7.624 118.793 22.15-.115c-.285 7.664-.154 16.385-.19 24.137l-21.955.149c-.147-7.896-.013-16.243-.005-24.171"/>
  <path fill="#fff" d="M103.48 511.699c.82 1.296-1.774 22.285-2.1 25.315l-7.693-.023c-.437-2.782-.806-19.918-1-23.909 4.063-.081 6.836-.662 10.792-1.383M84.597 539.23c4.112-.008 21.187-.444 24.106.323.59 1.65.288 3.547.18 5.355-4.214.02-20.332.372-23.463-.505-.885-1.545-.745-3.326-.823-5.174m29.803-52.786c4.016 5.055-3.47 16.833-7.376 20.544-3.228-4.442 3.64-16.926 7.375-20.544"/>
  <path fill="#2D6A9F" d="m418.2 533.512.794.07c.948.924 3.822 11.982 4.856 14.909 3.505-.26 6.002-.098 9.48.086 2.058-4.521 3.324-9.721 4.548-14.532 4.696 1.83 9.142 3.569 13.743 5.622a662 662 0 0 0-7.112 13.19c4.163 3.098 6.234 5.408 9.362 9.534 3.856-2.987 9.286-6.04 13.576-8.6-1.704-2.503-3.752-5.114-4.438-8.04l.61.046c2.655 2.301 4.739 5.592 6.78 8.494-5.121 3.284-10.443 6.078-15.725 9.553l2.105 4.945c5.012-.366 9.655-1.228 14.604-2.071l1.847 12.971c-5.321.59-10.174 1.164-15.453 2.028-.3 2.98-.756 4.48-1.579 7.393 4.427 2.063 8.491 3.966 13.036 5.754-2.76 4.982-5.095 8.977-8.466 13.557l-.146-.138c-3.187-3.067-7.573-5.879-11.253-8.434-2.92 2.451-4.154 3.442-7.436 5.331 1.898 4.674 4.145 9.887 5.627 14.652-4.64 1.307-11.065 2.575-15.97 3.791-.28-5.174-.668-10.416-1.003-15.594-3.728-.141-6.311-.67-9.947-1.338q-3.052 7.08-6.184 14.123c-4.286-3.045-9.029-6.107-13.419-9.053 2.973-3.653 6.323-7.44 9.395-11.046-2.783-2.416-4.81-4.288-6.482-7.596-4.243 1.638-9.266 4.025-13.455 5.94l-5.5-15.037c4.8-1.281 10.033-2.31 15.047-3.634-.037-3.99.12-5.526.918-9.431-4.467-1.06-10.493-3.188-14.986-4.643a218 218 0 0 0 6.398-14.216c4.47 2.342 9.035 4.93 13.474 7.364 2.768-2.95 4.067-4.119 7.263-6.604a594 594 0 0 0-7.924-12.915c4.024-2.251 8.812-4.423 13.014-6.431"/>
  <path fill="#fff" d="M423.375 551.165c14.969-3.151 29.633 6.515 32.637 21.514 3.004 15-6.806 29.568-21.834 32.424-14.82 2.817-29.144-6.828-32.107-21.62-2.962-14.793 6.542-29.21 21.304-32.318"/>
  <path fill="#2D6A9F" d="M425.036 556.973c11.562-2.145 22.669 5.505 24.787 17.072s-5.558 22.656-17.13 24.747c-11.534 2.084-22.578-5.56-24.69-17.09-2.11-11.529 5.508-22.591 17.033-24.73"/>
  <path fill="#fff" d="M427.98 558.411c10.741-.51 19.857 7.796 20.344 18.538.486 10.743-7.84 19.84-18.585 20.303-10.709.46-19.77-7.835-20.255-18.542-.486-10.709 7.789-19.79 18.496-20.299m11.233 47.689.494.02c1.395 1.427 4.757 9.948 5.782 12.378l-6.716 1.551-5.64 1.172c-.432-4.737-.617-8.69-.736-13.45 2.29-.31 4.58-1.044 6.816-1.671m-40.35-23.54 1.075-.026c.845.858 2.676 7.512 3.21 9.176-4.309 1.312-6.834 2.373-10.94 4.16-.348 0-.622-.24-1.012-.453-1.372-2.913-2.342-6.8-3.243-9.953zm-5.786-27.435c1.49.377 9.593 4.802 11.635 5.865-1.246 2.738-2.092 5.609-3.387 8.364-4.14-1.054-8.44-2.764-12.412-4.332zm24.699-19.126c1.171 2.399 3.443 10.331 4.266 13.102-1.703.641-6.294 2.981-7.633 2.646l-6.238-11.305c2.982-1.545 6.514-3.044 9.605-4.443m-5.786 65.876c2.379 1.858 4.156 2.737 6.828 4.166-.987 2.325-4.099 10.423-5.613 11.478l-.801-.47c-3.053-1.872-5.589-3.613-8.503-5.659 2.722-2.975 5.481-6.404 8.089-9.515m43.413-10.915c3.981 1.89 6.917 2.992 10.954 5.202-1.734 3.313-3.446 5.929-5.463 9.049-1.492-.073-8.63-5.828-10.036-7.29 1.818-2.378 3-4.384 4.545-6.96m-16.462-54.359 10.086 3.829c-1.833 3.301-3.668 6.976-5.426 10.35l-.194.297c-1.485.74-6.118-1.265-8.194-1.939 1.416-4.351 2.617-8.097 3.728-12.537m28.763 32.587c.947-.255.906-.184 1.846.155.863 1.965 1.17 6.256 1.472 8.584-3.278.574-7.437.959-10.8 1.364-.59.185-.98.113-1.638.117-.886-1.225-1.277-7.036-1.467-8.777 3.225-.28 7.32-.98 10.587-1.443"/>
  <path fill="#2D6A9F" d="M351.288 42.606c13.969-1.106 29.235 5.416 33.577 19.872 5.601 18.65-22.929 26.324-32.986 36.119-3.744 3.645-5.535 7.02-8.023 11.655 9.532-5.114 19.248-6.827 27.724 1.027.904 2.897 1.748 6.562.35 9.322-5.839 11.514-24.164 3.79-31.501.737-.737 4.308-.95 5.979-.905 10.342 1.657 11.424 11.563 19.156 10.26 30.075-.589 4.926-6.186 3.306-8.507-1.505l.355-.777c1.645-.259 2.249-.358 3.82-.869 1.702-4.168-7.67-15.3-8.928-20.587-1.471-6.176-1.188-12.97.113-19.097-22.948-15.062-25.318-38.22-10.825-61.123 5.729-9.052 15.192-13.28 25.476-15.191"/>
  <path fill="#fff" d="M350.984 46.635c12.296-.906 25.767 4.13 29.818 17.23 4.243 13.72-19.896 21.712-27.912 28.587-5.264 4.514-7.024 5.85-10.831 12.309-2.197 3.799-2.948 6.117-3.993 10.34-7.877-6.054-13.604-11.386-16.196-21.57-2.561-10.065.742-22.621 6.018-31.328 5.785-9.546 12.594-13.012 23.096-15.568m7.461 63.568c3.189-.044 7.501.509 9.387 3.42a4.7 4.7 0 0 1 .598 3.718c-1.52 6.073-8.617 5.699-13.349 4.746-3.01-.904-12.118-2.726-12.561-5.915 2.192-3.674 11.827-5.635 15.925-5.969"/>
  <path fill="#5AB1FC" d="M46.48 297.333c9.82-2.085 19.46 4.222 21.482 14.055 2.023 9.833-4.346 19.432-14.191 21.392-9.758 1.943-19.253-4.357-21.257-14.101s4.234-19.28 13.966-21.346M558.658 553.88c9.677-1.756 18.977 4.565 20.905 14.21 1.927 9.644-4.226 19.055-13.835 21.155a18.037 18.037 0 0 1-20.901-23.503 18.04 18.04 0 0 1 13.831-11.863M235.04 404.777c2.167.73 17.676 17.064 22.122 20.441-6.764 6.934-14.165 13.613-21.28 20.957l-1.042.112c-2.43-1.529-17.84-17.89-20.67-20.883 6.074-5.246 14.647-14.582 20.87-20.627"/>
  <path fill="#2D6A9F" d="M671.45 271.67c9.22-.971 19.503 5.953 21.001 15.25 2.587 16.047-11.497 29.95-20.234 41.965-8.997 12.371-6.272 20.864-3.66 34.585l-.786 1.027c-1.45.469-.718.483-2.251-.28-1.803-2.156-3.358-10.282-3.603-13.088-1.19-13.612 3.227-20.568 11.172-30.403 8.045-9.65 26.926-34.433 6.124-43.796-15.382-6.922-28.553 13.079-27.012 26.716.245 2.16.998 9.337.204 11.37-1.405.754-.677.66-2.258.235-1.247-1.384-1.662-3.036-1.867-4.853-1.873-16.604 4.45-36.315 23.17-38.728"/>
  <path fill="#5AB1FC" d="M90.971 803.79c7.658-1.986 15.48 2.599 17.488 10.254 2.007 7.648-2.557 15.481-10.205 17.51-7.676 2.034-15.545-2.55-17.56-10.234-2.015-7.676 2.59-15.538 10.277-17.53m566.609-40.41c7.604-1.536 15.016 3.37 16.575 10.968s-3.324 15.024-10.917 16.602c-7.625 1.585-15.09-3.32-16.655-10.947-1.565-7.633 3.364-15.081 10.998-16.624M415.18 52.697c7.384-1.139 14.33 3.81 15.663 11.16s-3.432 14.425-10.744 15.95a13.78 13.78 0 1 1-4.918-27.11M66.356 341.63c5.524-.052 11.242 2.597 12.76 8.321 3.686 13.892-11.033 22.568-16.393 32.86l-.331.643c1.103 3.1 2.804 6.061-.46 8.237-2.62-.492-3.656-2.656-3.698-5.238-.087-5.365 3.127-9.017 6.612-12.703 5.306-5.334 12.152-12.945 11.267-21.126-.6-5.541-4.997-9.037-10.571-7.598-6.754 1.743-9.675 8.038-12.989 13.598l-.99-.582c-.79-1.773-.335-3.003.524-4.709 3.39-6.738 6.702-10.478 14.27-11.702"/>
  <path fill="#2D6A9F" d="M669.38 376.825a5.33 5.33 0 1 1 4.316 9.748 5.33 5.33 0 0 1-4.316-9.748"/>
  <path fill="#5AB1FC" d="M60.277 399.99c1.253-.05 2.654-.207 3.715.51a3.7 3.7 0 0 1 1.59 2.47c.358 2.28-.7 3.959-1.875 5.724-5.65-.158-4.729-4.861-3.43-8.704"/>
</svg>
