<svg fill="none" xmlns="http://www.w3.org/2000/svg" viewBox="0 0 101 38">
  <path d="M26.97 35.786c0 .69-1.542 1.034-4.627 1.034-3.084 0-4.757-.246-5.02-.739L9.106 20.726v15.306c0 .59-1.526.886-4.577.886-3.019 0-4.528-.295-4.528-.886V3.107c0-.492 1.296-.738 3.888-.738 1.017 0 2.198.099 3.543.295 1.378.164 2.215.493 2.51.985l7.875 15.158V3.353c0-.623 1.525-.935 4.577-.935 3.051 0 4.577.312 4.577.935v32.433zm22.316-.246c-2.067 1.214-4.725 1.82-7.973 1.82s-5.988-1.098-8.22-3.297c-2.23-2.23-3.346-5.298-3.346-9.203 0-3.937 1.067-7.103 3.2-9.498 2.165-2.395 4.888-3.593 8.169-3.593 3.28 0 5.807.837 7.579 2.51 1.805 1.674 2.707 3.708 2.707 6.103 0 5.315-3.052 7.973-9.154 7.973h-3.396c0 .984.263 1.673.788 2.067.557.36 1.361.541 2.411.541 2.297 0 4.479-.525 6.546-1.575.032-.033.18.197.442.69.788 1.41 1.182 2.607 1.182 3.592 0 .951-.312 1.575-.935 1.87zm-6.152-14.223c0-1.378-.673-2.067-2.018-2.067a2.42 2.42 0 00-1.624.59c-.427.361-.64.903-.64 1.625v1.525h2.658c1.082 0 1.624-.558 1.624-1.673zm21.818 15.257c0 .393-1.378.59-4.134.59-3.281-.131-4.921-.344-4.921-.64V19.102h-2.51c-.657 0-.985-1.132-.985-3.396 0-.59.05-1.312.148-2.165.131-.853.377-1.28.738-1.28h2.609v-4.33c0-.657 1.378-.985 4.134-.985 2.788 0 4.183.263 4.183.788v3.15l.05 1.377h4.182c.558 0 .837 1.149.837 3.445 0 2.297-.279 3.445-.837 3.445h-3.494v17.423zm14.822 0c0 .262-1.51.393-4.528.393-2.986 0-4.478-.115-4.478-.344V12.458c0-.23 1.492-.344 4.478-.344 3.019 0 4.528.098 4.528.295v24.165zm14.244.246c0 .23-1.492.344-4.478.344-2.986-.066-4.479-.197-4.479-.394V20.431h-1.329c-.524 0-.951-.312-1.28-.935-.294-.656-.442-1.46-.442-2.412 0-3.543 1.05-5.315 3.15-5.315 1.476 0 2.707.46 3.69 1.378.985.886 1.477 1.903 1.477 3.051.69-1.345 1.608-2.411 2.756-3.198 1.181-.82 2.38-1.23 3.593-1.23 1.903 0 3.051.491 3.445 1.476.099.262.148.656.148 1.18 0 .493-.164 1.395-.492 2.708-.296 1.312-.607 2.264-.936 2.854-.328.59-.524.886-.59.886-.066 0-.377-.115-.935-.345-.525-.262-1-.393-1.427-.393-1.247 0-1.87.984-1.87 2.953v13.73z" fill="#344154"/>
  <path d="M70.678 5.394v4.217h6.396c.811 0 1.83-.255 2.37-.59.541-.333 1.257-1.256 1.4-2.274.144-1.019.128-2.303-.19-3.31-.462-1.459-1.687-2.323-2.8-2.609C75.736.43 74.21.621 72.475 1.83c-1.356.945-1.772 2.758-1.798 3.564z" fill="url(#OftkQU2VpIMEa)"/>
  <defs>
    <linearGradient id="OftkQU2VpIMEa" x1="70.678" y1="5.126" x2="80.931" y2="5.126" gradientUnits="userSpaceOnUse">
      <stop offset=".022" stop-color="#FF385C"/>
      <stop offset="1" stop-color="#FF385C"/>
    </linearGradient>
  </defs>
</svg>
