<svg xmlns="http://www.w3.org/2000/svg" fill="none" viewBox="0 0 147 54">
  <path fill="#344056" d="M39.456 51.415q0 1.512-6.768 1.512t-7.344-1.08L13.32 29.383v22.392q0 1.296-6.696 1.296Q0 53.071 0 51.775V3.607q0-1.08 5.688-1.08 2.232 0 5.184.432 3.024.36 3.672 1.44l11.52 22.176V3.967q0-1.368 6.696-1.368t6.696 1.368zm32.648-.36Q67.566 53.72 60.44 53.72q-7.128 0-12.024-4.824Q43.52 44 43.52 35.431q0-8.64 4.68-13.896 4.75-5.256 11.951-5.256 7.2 0 11.089 3.672 3.96 3.672 3.96 8.928 0 11.664-13.393 11.664H56.84q0 2.16 1.153 3.024 1.224.792 3.528.792 5.04 0 9.575-2.304.073-.072.648 1.008 1.73 3.096 1.729 5.256 0 2.088-1.368 2.736m-9-20.808q0-3.024-2.953-3.024-1.368 0-2.376.864-.935.792-.935 2.376v2.232h3.887q2.377 0 2.377-2.448m31.918 22.32q0 .864-6.048.864-7.2-.288-7.2-.936V27.007h-3.672q-1.44 0-1.44-4.968 0-1.296.216-3.168Q77.167 17 77.96 17h3.816v-6.336q0-1.44 6.048-1.44 6.12 0 6.12 1.152v4.608L94.015 17h6.12q1.224 0 1.224 5.04t-1.224 5.04h-5.112zm21.684 0q0 .576-6.624.576-6.552 0-6.552-.504V17.287q0-.504 6.552-.504 6.624 0 6.624.432zm20.839.36q0 .504-6.552.504-6.552-.144-6.552-.576V28.951h-1.944q-1.152 0-1.872-1.368-.648-1.44-.648-3.528 0-7.776 4.608-7.776 3.24 0 5.4 2.016 2.16 1.944 2.16 4.464 1.512-2.952 4.032-4.68 2.592-1.8 5.256-1.8 4.176 0 5.04 2.16.216.576.216 1.728 0 1.08-.72 3.96-.648 2.88-1.368 4.176t-.864 1.296-1.368-.504q-1.152-.576-2.088-.576-2.736 0-2.736 4.32z"/>
  <path fill="#76ABD8" d="M103.4 6.955v6.168h9.357c1.188 0 2.677-.373 3.469-.861.791-.49 1.838-1.84 2.048-3.329s.186-3.37-.279-4.841c-.675-2.135-2.468-3.399-4.097-3.818-3.096-.582-5.33-.302-7.867 1.467-1.983 1.382-2.592 4.034-2.631 5.214"/>
</svg>
