<svg fill="none" xmlns="http://www.w3.org/2000/svg" viewBox="0 0 52 52">
  <path fill-rule="evenodd" clip-rule="evenodd" d="M11.375 21.785v-4.452a14.625 14.625 0 1129.25 0v4.453c2.416.18 3.986.634 5.137 1.785 1.904 1.902 1.904 4.968 1.904 11.095 0 6.128 0 9.194-1.904 11.096-1.903 1.904-4.968 1.904-11.096 1.904H17.333c-6.127 0-9.193 0-11.095-1.904-1.905-1.903-1.905-4.968-1.905-11.096 0-6.127 0-9.193 1.905-11.095 1.148-1.15 2.72-1.606 5.137-1.786zm3.25-4.452a11.375 11.375 0 1122.75 0v4.342c-.83-.007-1.732-.01-2.709-.009H17.333c-.978-.001-1.88.002-2.708.009v-4.342z" fill="#000"/>
</svg>
