<svg fill="none" xmlns="http://www.w3.org/2000/svg" viewBox="0 0 52 52">
  <path d="M26 21.666a8.667 8.667 0 100-17.333 8.667 8.667 0 000 17.333z" fill="#000"/>
  <path fill-rule="evenodd" clip-rule="evenodd" d="M29.279 46.555c1.109 1.112 2.896 1.112 6.471 1.112s5.363 0 6.472-1.112c1.112-1.11 1.112-2.897 1.112-6.472 0-3.575 0-5.362-1.112-6.471-1.11-1.112-2.897-1.112-6.472-1.112-3.575 0-5.362 0-6.471 1.111-1.112 1.11-1.112 2.897-1.112 6.472 0 3.575 0 5.363 1.111 6.472zm4.363-3.272c-1.52-1.09-3.308-2.37-3.308-4.586 0-2.449 2.979-4.184 5.416-1.831 2.438-2.355 5.417-.618 5.417 1.83 0 2.217-1.788 3.498-3.309 4.587l-.461.334c-.563.412-1.105.8-1.647.8-.541 0-1.083-.39-1.646-.802l-.462-.332z" fill="#000"/>
  <path d="M33.399 29.265a24.482 24.482 0 00-7.4-1.099c-8.376 0-15.166 3.879-15.166 8.667 0 4.637 6.374 8.424 14.391 8.656a10.85 10.85 0 01-.139-.813c-.169-1.252-.169-2.78-.169-4.407v-.372c0-1.625 0-3.155.17-4.407.186-1.393.634-2.919 1.893-4.178 1.259-1.26 2.784-1.707 4.177-1.895a21.57 21.57 0 012.243-.152z" fill="#000"/>
</svg>
