<svg fill="none" xmlns="http://www.w3.org/2000/svg" viewBox="0 0 52 52">
  <path fill-rule="evenodd" clip-rule="evenodd" d="M7.319 11.01C6.5 12.177 6.5 15.644 6.5 22.57v3.41c0 12.216 9.184 18.146 14.948 20.662 1.562.682 2.344 1.024 4.552 1.024 2.21 0 2.99-.342 4.552-1.024C36.316 44.123 45.5 38.197 45.5 25.98v-3.41c0-6.93 0-10.394-.819-11.56-.817-1.163-4.073-2.279-10.588-4.508l-1.242-.425C29.456 4.914 27.759 4.333 26 4.333c-1.76 0-3.456.58-6.851 1.744l-1.242.423C11.392 8.73 8.136 9.847 7.32 11.01zM32.63 22.75a1.626 1.626 0 00-2.427-2.165l-6.523 7.31-1.886-2.11a1.625 1.625 0 00-2.422 2.167l3.094 3.466a1.623 1.623 0 002.425 0l7.739-8.668z" fill="#000"/>
</svg>
