<svg fill="none" xmlns="http://www.w3.org/2000/svg" viewBox="0 0 498 87">
  <rect width="498" height="87" rx="20" fill="#fff"/>
  <path fill-rule="evenodd" clip-rule="evenodd" d="M56.666 43c0 11.966-9.7 21.666-21.666 21.666a21.56 21.56 0 01-9.646-2.262 3.532 3.532 0 00-2.49-.288l-4.823 1.291a2.816 2.816 0 01-3.447-3.449l1.29-4.823a3.532 3.532 0 00-.291-2.487A21.58 21.58 0 0113.333 43c0-11.967 9.7-21.667 21.667-21.667 11.966 0 21.666 9.7 21.666 21.667zM35 32.708a1.625 1.625 0 011.625 1.625v.022c2.36.596 4.333 2.455 4.333 5.033a1.625 1.625 0 01-3.25 0c0-.832-.923-1.985-2.708-1.985-1.786 0-2.709 1.153-2.709 1.985 0 .832.923 1.987 2.709 1.987 3 0 5.958 2.08 5.958 5.236 0 2.579-1.974 4.44-4.333 5.034v.021a1.625 1.625 0 01-3.25 0v-.021c-2.36-.594-4.334-2.455-4.334-5.034a1.625 1.625 0 113.25 0c0 .833.923 1.985 2.709 1.985 1.785 0 2.708-1.152 2.708-1.984 0-.833-.923-1.987-2.708-1.987-3.001 0-5.959-2.08-5.959-5.237 0-2.578 1.974-4.438 4.334-5.033v-.022A1.625 1.625 0 0135 32.708z" fill="#000"/>
  <path d="M80.48 50.716c-1.68 0-3.12-.352-4.32-1.056-1.2-.704-2.128-1.704-2.784-3-.64-1.312-.96-2.856-.96-4.632 0-1.776.32-3.312.96-4.608.656-1.296 1.584-2.296 2.784-3 1.2-.704 2.64-1.056 4.32-1.056 1.152 0 2.224.184 3.216.552 1.008.352 1.848.88 2.52 1.584l-.816 1.776c-.736-.656-1.496-1.136-2.28-1.44-.784-.304-1.648-.456-2.592-.456-1.856 0-3.28.576-4.272 1.728-.976 1.152-1.464 2.792-1.464 4.92s.488 3.776 1.464 4.944c.992 1.152 2.416 1.728 4.272 1.728.944 0 1.808-.152 2.592-.456.784-.304 1.544-.784 2.28-1.44l.816 1.776c-.672.688-1.512 1.216-2.52 1.584-.992.368-2.064.552-3.216.552zm12.568 0c-1.152 0-2.152-.248-3-.744-.848-.496-1.504-1.2-1.968-2.112-.464-.912-.696-1.984-.696-3.216 0-1.232.232-2.296.696-3.192.464-.912 1.12-1.616 1.968-2.112.848-.496 1.848-.744 3-.744s2.152.248 3 .744c.848.496 1.504 1.2 1.968 2.112.464.896.696 1.96.696 3.192 0 1.232-.232 2.304-.696 3.216-.464.912-1.12 1.616-1.968 2.112-.848.496-1.848.744-3 .744zm0-1.728c1.056 0 1.896-.368 2.52-1.104.624-.752.936-1.832.936-3.24 0-1.408-.312-2.48-.936-3.216-.624-.736-1.464-1.104-2.52-1.104-1.04 0-1.88.368-2.52 1.104-.624.736-.936 1.808-.936 3.216 0 1.408.312 2.488.936 3.24.64.736 1.48 1.104 2.52 1.104zm8.51 1.512V38.812h2.136v2.544h-.264c.208-.592.496-1.088.864-1.488a3.498 3.498 0 011.32-.936 4.379 4.379 0 011.728-.336c.992 0 1.792.24 2.4.72.608.464 1.016 1.176 1.224 2.136h-.336c.288-.88.8-1.576 1.536-2.088.752-.512 1.624-.768 2.616-.768.88 0 1.6.176 2.16.528.576.336 1.008.848 1.296 1.536.288.672.432 1.536.432 2.592V50.5h-2.184v-7.152c0-1.024-.176-1.776-.528-2.256-.352-.48-.944-.72-1.776-.72-.608 0-1.136.144-1.584.432a2.78 2.78 0 00-1.032 1.224c-.24.528-.36 1.16-.36 1.896V50.5h-2.184v-7.152c0-1.024-.176-1.776-.528-2.256-.352-.48-.944-.72-1.776-.72-.608 0-1.136.144-1.584.432a2.78 2.78 0 00-1.032 1.224c-.24.528-.36 1.16-.36 1.896V50.5h-2.184zm20.672 0V38.812h2.136v2.544h-.264c.208-.592.496-1.088.864-1.488a3.498 3.498 0 011.32-.936 4.379 4.379 0 011.728-.336c.992 0 1.792.24 2.4.72.608.464 1.016 1.176 1.224 2.136h-.336c.288-.88.8-1.576 1.536-2.088.752-.512 1.624-.768 2.616-.768.88 0 1.6.176 2.16.528.576.336 1.008.848 1.296 1.536.288.672.432 1.536.432 2.592V50.5h-2.184v-7.152c0-1.024-.176-1.776-.528-2.256-.352-.48-.944-.72-1.776-.72-.608 0-1.136.144-1.584.432a2.78 2.78 0 00-1.032 1.224c-.24.528-.36 1.16-.36 1.896V50.5h-2.184v-7.152c0-1.024-.176-1.776-.528-2.256-.352-.48-.944-.72-1.776-.72-.608 0-1.136.144-1.584.432a2.78 2.78 0 00-1.032 1.224c-.24.528-.36 1.16-.36 1.896V50.5h-2.184zm20.408-14.496v-2.352h2.616v2.352h-2.616zm.216 14.496V38.812h2.184V50.5h-2.184zm9.727.216a9.662 9.662 0 01-1.8-.168 8.19 8.19 0 01-1.608-.48 5.908 5.908 0 01-1.272-.792l.648-1.512c.384.288.8.536 1.248.744.448.192.912.336 1.392.432.48.096.96.144 1.44.144.88 0 1.544-.16 1.992-.48.448-.32.672-.744.672-1.272 0-.448-.152-.792-.456-1.032-.288-.256-.744-.448-1.368-.576l-2.232-.456c-.992-.224-1.744-.592-2.256-1.104-.496-.528-.744-1.2-.744-2.016 0-.72.192-1.344.576-1.872.4-.544.952-.96 1.656-1.248.704-.288 1.512-.432 2.424-.432.544 0 1.072.056 1.584.168.512.112.992.272 1.44.48.448.208.824.48 1.128.816l-.672 1.488a4.262 4.262 0 00-1.032-.72 5.379 5.379 0 00-1.2-.432 4.782 4.782 0 00-1.248-.168c-.864 0-1.52.168-1.968.504a1.593 1.593 0 00-.648 1.32c0 .416.128.76.384 1.032.272.272.696.472 1.272.6l2.232.456c1.04.224 1.824.584 2.352 1.08.528.48.792 1.136.792 1.968 0 .736-.2 1.368-.6 1.896-.384.528-.936.936-1.656 1.224-.704.272-1.528.408-2.472.408zm11.601 0a9.662 9.662 0 01-1.8-.168 8.19 8.19 0 01-1.608-.48 5.908 5.908 0 01-1.272-.792l.648-1.512c.384.288.8.536 1.248.744.448.192.912.336 1.392.432.48.096.96.144 1.44.144.88 0 1.544-.16 1.992-.48.448-.32.672-.744.672-1.272 0-.448-.152-.792-.456-1.032-.288-.256-.744-.448-1.368-.576l-2.232-.456c-.992-.224-1.744-.592-2.256-1.104-.496-.528-.744-1.2-.744-2.016 0-.72.192-1.344.576-1.872.4-.544.952-.96 1.656-1.248.704-.288 1.512-.432 2.424-.432.544 0 1.072.056 1.584.168.512.112.992.272 1.44.48.448.208.824.48 1.128.816l-.672 1.488a4.262 4.262 0 00-1.032-.72 5.379 5.379 0 00-1.2-.432 4.782 4.782 0 00-1.248-.168c-.864 0-1.52.168-1.968.504a1.593 1.593 0 00-.648 1.32c0 .416.128.76.384 1.032.272.272.696.472 1.272.6l2.232.456c1.04.224 1.824.584 2.352 1.08.528.48.792 1.136.792 1.968 0 .736-.2 1.368-.6 1.896-.384.528-.936.936-1.656 1.224-.704.272-1.528.408-2.472.408zm7.354-14.712v-2.352h2.616v2.352h-2.616zm.216 14.496V38.812h2.184V50.5h-2.184zm10.663.216c-1.152 0-2.152-.248-3-.744-.848-.496-1.504-1.2-1.968-2.112-.464-.912-.696-1.984-.696-3.216 0-1.232.232-2.296.696-3.192.464-.912 1.12-1.616 1.968-2.112.848-.496 1.848-.744 3-.744s2.152.248 3 .744c.848.496 1.504 1.2 1.968 2.112.464.896.696 1.96.696 3.192 0 1.232-.232 2.304-.696 3.216-.464.912-1.12 1.616-1.968 2.112-.848.496-1.848.744-3 .744zm0-1.728c1.056 0 1.896-.368 2.52-1.104.624-.752.936-1.832.936-3.24 0-1.408-.312-2.48-.936-3.216-.624-.736-1.464-1.104-2.52-1.104-1.04 0-1.88.368-2.52 1.104-.624.736-.936 1.808-.936 3.216 0 1.408.312 2.488.936 3.24.64.736 1.48 1.104 2.52 1.104zm8.462 1.512V38.812h2.136v2.544h-.264c.336-.912.88-1.6 1.632-2.064.768-.464 1.64-.696 2.616-.696.944 0 1.72.168 2.328.504.608.336 1.064.856 1.368 1.56.304.688.456 1.552.456 2.592V50.5h-2.184v-7.128c0-.688-.088-1.256-.264-1.704-.176-.448-.456-.776-.84-.984-.368-.208-.84-.312-1.416-.312-.672 0-1.264.144-1.776.432a3.048 3.048 0 00-1.2 1.224c-.272.528-.408 1.144-.408 1.848V50.5h-2.184zm24.433.216c-1.024 0-1.928-.24-2.712-.72-.768-.496-1.368-1.2-1.8-2.112-.432-.928-.648-2.008-.648-3.24 0-1.248.208-2.32.624-3.216.432-.912 1.032-1.608 1.8-2.088.784-.496 1.696-.744 2.736-.744 1.04 0 1.936.264 2.688.792a3.702 3.702 0 011.512 2.064h-.264V33.58h2.184V50.5h-2.16v-2.712h.24a3.668 3.668 0 01-1.512 2.136c-.752.528-1.648.792-2.688.792zm.504-1.728c1.056 0 1.896-.368 2.52-1.104.624-.752.936-1.832.936-3.24 0-1.408-.312-2.48-.936-3.216-.624-.736-1.464-1.104-2.52-1.104-1.04 0-1.88.368-2.52 1.104-.624.736-.936 1.808-.936 3.216 0 1.408.312 2.488.936 3.24.64.736 1.48 1.104 2.52 1.104zm14.518 1.728c-1.264 0-2.352-.24-3.264-.72a5.244 5.244 0 01-2.088-2.088c-.496-.912-.744-1.984-.744-3.216 0-1.216.24-2.28.72-3.192.496-.912 1.168-1.624 2.016-2.136.864-.512 1.848-.768 2.952-.768 1.072 0 1.984.232 2.736.696.768.464 1.352 1.128 1.752 1.992.416.848.624 1.872.624 3.072v.792h-9.096v-1.392h7.656l-.408.336c0-1.248-.272-2.208-.816-2.88-.544-.688-1.344-1.032-2.4-1.032-.768 0-1.424.184-1.968.552-.544.352-.96.856-1.248 1.512-.288.64-.432 1.384-.432 2.232v.144c0 .96.152 1.768.456 2.424a3.37 3.37 0 001.368 1.464c.592.32 1.32.48 2.184.48.688 0 1.352-.104 1.992-.312a6.053 6.053 0 001.848-1.032l.672 1.512c-.528.48-1.208.864-2.04 1.152a7.772 7.772 0 01-2.472.408zm17.686 0a9.662 9.662 0 01-1.8-.168 8.19 8.19 0 01-1.608-.48 5.908 5.908 0 01-1.272-.792l.648-1.512c.384.288.8.536 1.248.744.448.192.912.336 1.392.432.48.096.96.144 1.44.144.88 0 1.544-.16 1.992-.48.448-.32.672-.744.672-1.272 0-.448-.152-.792-.456-1.032-.288-.256-.744-.448-1.368-.576l-2.232-.456c-.992-.224-1.744-.592-2.256-1.104-.496-.528-.744-1.2-.744-2.016 0-.72.192-1.344.576-1.872.4-.544.952-.96 1.656-1.248.704-.288 1.512-.432 2.424-.432.544 0 1.072.056 1.584.168.512.112.992.272 1.44.48.448.208.824.48 1.128.816l-.672 1.488a4.262 4.262 0 00-1.032-.72 5.379 5.379 0 00-1.2-.432 4.782 4.782 0 00-1.248-.168c-.864 0-1.52.168-1.968.504a1.593 1.593 0 00-.648 1.32c0 .416.128.76.384 1.032.272.272.696.472 1.272.6l2.232.456c1.04.224 1.824.584 2.352 1.08.528.48.792 1.136.792 1.968 0 .736-.2 1.368-.6 1.896-.384.528-.936.936-1.656 1.224-.704.272-1.528.408-2.472.408zm12.97 0c-1.264 0-2.352-.24-3.264-.72a5.244 5.244 0 01-2.088-2.088c-.496-.912-.744-1.984-.744-3.216 0-1.216.24-2.28.72-3.192.496-.912 1.168-1.624 2.016-2.136.864-.512 1.848-.768 2.952-.768 1.072 0 1.984.232 2.736.696.768.464 1.352 1.128 1.752 1.992.416.848.624 1.872.624 3.072v.792h-9.096v-1.392h7.656l-.408.336c0-1.248-.272-2.208-.816-2.88-.544-.688-1.344-1.032-2.4-1.032-.768 0-1.424.184-1.968.552-.544.352-.96.856-1.248 1.512-.288.64-.432 1.384-.432 2.232v.144c0 .96.152 1.768.456 2.424a3.37 3.37 0 001.368 1.464c.592.32 1.32.48 2.184.48.688 0 1.352-.104 1.992-.312a6.053 6.053 0 001.848-1.032l.672 1.512c-.528.48-1.208.864-2.04 1.152a7.772 7.772 0 01-2.472.408zm11.596 0c-.944 0-1.736-.176-2.376-.528-.624-.352-1.088-.872-1.392-1.56-.304-.688-.456-1.552-.456-2.592v-7.224h2.184v7.224c0 .656.088 1.2.264 1.632.176.432.448.752.816.96.384.208.864.312 1.44.312.64 0 1.2-.144 1.68-.432.48-.288.856-.696 1.128-1.224.272-.528.408-1.144.408-1.848v-6.624h2.184V50.5h-2.136v-2.64h.312c-.32.928-.84 1.64-1.56 2.136-.704.48-1.536.72-2.496.72zm13.115 0c-1.248 0-2.184-.352-2.808-1.056-.608-.72-.912-1.752-.912-3.096V33.58h2.184v12.816c0 .544.072 1.008.216 1.392.16.368.384.64.672.816.304.176.68.264 1.128.264.176 0 .352-.008.528-.024.192-.016.368-.048.528-.096l-.048 1.776a6.477 6.477 0 01-1.488.192zm8.781 0c-1.264 0-2.352-.24-3.264-.72a5.244 5.244 0 01-2.088-2.088c-.496-.912-.744-1.984-.744-3.216 0-1.216.24-2.28.72-3.192.496-.912 1.168-1.624 2.016-2.136.864-.512 1.848-.768 2.952-.768 1.072 0 1.984.232 2.736.696.768.464 1.352 1.128 1.752 1.992.416.848.624 1.872.624 3.072v.792h-9.096v-1.392h7.656l-.408.336c0-1.248-.272-2.208-.816-2.88-.544-.688-1.344-1.032-2.4-1.032-.768 0-1.424.184-1.968.552-.544.352-.96.856-1.248 1.512-.288.64-.432 1.384-.432 2.232v.144c0 .96.152 1.768.456 2.424a3.37 3.37 0 001.368 1.464c.592.32 1.32.48 2.184.48.688 0 1.352-.104 1.992-.312a6.053 6.053 0 001.848-1.032l.672 1.512c-.528.48-1.208.864-2.04 1.152a7.772 7.772 0 01-2.472.408zm7.468-.216V38.812h2.136v2.544h-.264c.208-.592.496-1.088.864-1.488a3.498 3.498 0 011.32-.936 4.379 4.379 0 011.728-.336c.992 0 1.792.24 2.4.72.608.464 1.016 1.176 1.224 2.136h-.336c.288-.88.8-1.576 1.536-2.088.752-.512 1.624-.768 2.616-.768.88 0 1.6.176 2.16.528.576.336 1.008.848 1.296 1.536.288.672.432 1.536.432 2.592V50.5h-2.184v-7.152c0-1.024-.176-1.776-.528-2.256-.352-.48-.944-.72-1.776-.72-.608 0-1.136.144-1.584.432a2.78 2.78 0 00-1.032 1.224c-.24.528-.36 1.16-.36 1.896V50.5h-2.184v-7.152c0-1.024-.176-1.776-.528-2.256-.352-.48-.944-.72-1.776-.72-.608 0-1.136.144-1.584.432a2.78 2.78 0 00-1.032 1.224c-.24.528-.36 1.16-.36 1.896V50.5h-2.184zm26.024.216c-1.264 0-2.352-.24-3.264-.72a5.244 5.244 0 01-2.088-2.088c-.496-.912-.744-1.984-.744-3.216 0-1.216.24-2.28.72-3.192.496-.912 1.168-1.624 2.016-2.136.864-.512 1.848-.768 2.952-.768 1.072 0 1.984.232 2.736.696.768.464 1.352 1.128 1.752 1.992.416.848.624 1.872.624 3.072v.792h-9.096v-1.392h7.656l-.408.336c0-1.248-.272-2.208-.816-2.88-.544-.688-1.344-1.032-2.4-1.032-.768 0-1.424.184-1.968.552-.544.352-.96.856-1.248 1.512-.288.64-.432 1.384-.432 2.232v.144c0 .96.152 1.768.456 2.424a3.37 3.37 0 001.368 1.464c.592.32 1.32.48 2.184.48.688 0 1.352-.104 1.992-.312a6.053 6.053 0 001.848-1.032l.672 1.512c-.528.48-1.208.864-2.04 1.152a7.772 7.772 0 01-2.472.408zm7.421-.216V38.812h2.136v2.544h-.264c.336-.912.88-1.6 1.632-2.064.768-.464 1.64-.696 2.616-.696.944 0 1.72.168 2.328.504.608.336 1.064.856 1.368 1.56.304.688.456 1.552.456 2.592V50.5h-2.184v-7.128c0-.688-.088-1.256-.264-1.704-.176-.448-.456-.776-.84-.984-.368-.208-.84-.312-1.416-.312-.672 0-1.264.144-1.776.432a3.048 3.048 0 00-1.2 1.224c-.272.528-.408 1.144-.408 1.848V50.5h-2.184zm18.582.216c-1.424 0-2.488-.368-3.192-1.104-.704-.752-1.056-1.824-1.056-3.216v-5.904h-2.28v-1.68h2.28V35.26h2.184v3.552h3.672v1.68h-3.672v5.712c0 .88.184 1.544.552 1.992.368.448.976.672 1.824.672.256 0 .504-.024.744-.072.256-.064.496-.128.72-.192l.36 1.632c-.224.144-.544.256-.96.336-.4.096-.792.144-1.176.144zm15.22 0c-.752 0-1.48-.072-2.184-.216a10.058 10.058 0 01-1.992-.672 6.814 6.814 0 01-1.608-1.104l.792-1.728c.768.624 1.552 1.08 2.352 1.368.8.288 1.656.432 2.568.432.784 0 1.448-.112 1.992-.336.544-.24.952-.584 1.224-1.032.288-.464.432-1.016.432-1.656 0-.96-.312-1.68-.936-2.16-.624-.496-1.536-.744-2.736-.744h-2.544v-1.872h2.352c.704 0 1.304-.12 1.8-.36.496-.256.88-.608 1.152-1.056.288-.448.432-.992.432-1.632 0-.864-.28-1.52-.84-1.968-.56-.464-1.368-.696-2.424-.696-.864 0-1.672.16-2.424.48-.736.304-1.44.776-2.112 1.416l-.792-1.704c.64-.672 1.448-1.192 2.424-1.56a8.764 8.764 0 013.072-.552c1.104 0 2.048.176 2.832.528.8.352 1.408.856 1.824 1.512.416.64.624 1.416.624 2.328 0 1.04-.288 1.936-.864 2.688-.56.736-1.336 1.224-2.328 1.464v-.264c.784.144 1.448.408 1.992.792.56.384.984.872 1.272 1.464.288.592.432 1.272.432 2.04 0 .976-.24 1.832-.72 2.568-.464.72-1.128 1.272-1.992 1.656-.864.384-1.888.576-3.072.576zm14.391.408l-1.512-.888 9.96-17.28 1.488.888-9.936 17.28zm-1.584-7.416c-.864 0-1.608-.2-2.232-.6-.608-.416-1.08-1.008-1.416-1.776-.32-.784-.48-1.72-.48-2.808 0-1.616.368-2.88 1.104-3.792.736-.912 1.744-1.368 3.024-1.368.848 0 1.584.208 2.208.624.624.4 1.096.984 1.416 1.752.336.768.504 1.696.504 2.784 0 1.088-.168 2.024-.504 2.808-.32.768-.792 1.36-1.416 1.776-.608.4-1.344.6-2.208.6zm0-1.56c.704 0 1.256-.296 1.656-.888.4-.608.6-1.52.6-2.736 0-1.2-.2-2.096-.6-2.688-.4-.608-.952-.912-1.656-.912s-1.264.296-1.68.888c-.4.592-.6 1.496-.6 2.712 0 1.216.2 2.128.6 2.736.416.592.976.888 1.68.888zm11.616 8.568c-.864 0-1.608-.2-2.232-.6-.608-.416-1.08-1.008-1.416-1.776-.32-.784-.48-1.72-.48-2.808 0-1.616.368-2.88 1.104-3.792.736-.912 1.744-1.368 3.024-1.368.848 0 1.584.208 2.208.624.624.4 1.096.984 1.416 1.752.336.768.504 1.696.504 2.784 0 1.088-.168 2.024-.504 2.808-.32.768-.792 1.36-1.416 1.776-.608.4-1.344.6-2.208.6zm0-1.56c.704 0 1.256-.296 1.656-.888.4-.608.6-1.52.6-2.736 0-1.2-.2-2.096-.6-2.688-.4-.608-.952-.912-1.656-.912s-1.264.296-1.68.888c-.4.592-.6 1.496-.6 2.712 0 1.216.2 2.128.6 2.736.416.592.976.888 1.68.888z" fill="#000"/>
</svg>
