<svg fill="none" xmlns="http://www.w3.org/2000/svg" viewBox="0 0 52 52">
  <path d="M39.773 3.497a1.625 1.625 0 012.23-.557l.006.004.007.004.021.013c.084.052.167.107.247.165.155.107.355.26.6.46.481.4 1.11 1 1.738 1.815 1.261 1.64 2.503 4.147 2.503 7.599 0 3.451-1.242 5.958-2.503 7.598a11.587 11.587 0 01-1.737 1.816c-.261.218-.535.42-.82.606l-.028.018-.021.013-.007.004-.004.002s-.002.002-.839-1.39l.837 1.392a1.625 1.625 0 01-1.682-2.78l.011-.008.087-.059c.088-.06.216-.159.383-.294a8.218 8.218 0 001.242-1.3c.906-1.177 1.83-3.003 1.83-5.618 0-2.616-.925-4.442-1.828-5.619a8.233 8.233 0 00-1.244-1.3 6.513 6.513 0 00-.47-.353l-.01-.008a1.625 1.625 0 01-.549-2.223zm-18.107 18.17a8.667 8.667 0 100-17.334 8.667 8.667 0 000 17.333zM4.333 37.916c0 5.383 0 9.75 17.333 9.75C39 47.666 39 43.3 39 37.916c0-5.385-7.761-9.75-17.334-9.75-9.572 0-17.333 4.365-17.333 9.75z" fill="#000"/>
  <path d="M37.67 7.274a1.625 1.625 0 00-2.232.557l.541 2.218.016.011.136.106c.13.108.312.28.498.52.504.665.766 1.48.746 2.314.02.834-.242 1.65-.745 2.314-.182.238-.396.45-.635.629l-.018.008a1.625 1.625 0 001.69 2.776h.005l.004-.005.006-.002.016-.01.043-.027c.165-.106.322-.223.47-.35.28-.232.637-.575.995-1.038A6.933 6.933 0 0040.625 13a6.933 6.933 0 00-1.42-4.294 6.48 6.48 0 00-1.347-1.309l-.117-.08-.043-.026-.016-.01-.006-.003-.004-.002s-.002-.002-.839 1.39l.837-1.392z" fill="#000"/>
</svg>
