<svg fill="none" xmlns="http://www.w3.org/2000/svg" viewBox="0 0 52 52">
  <path opacity=".5" d="M26 36.833c8.376 0 15.166-6.79 15.166-15.166C41.166 13.29 34.376 6.5 26 6.5c-8.377 0-15.167 6.79-15.167 15.167 0 8.376 6.79 15.166 15.167 15.166z" fill="#000"/>
  <path d="M20.805 17.795c-.284-3.161-2.722-6.106-3.905-7.185l-.654-.559A15.106 15.106 0 0126 6.5a15.08 15.08 0 018.97 2.938c.356 1.077-.32 3.328-1.029 4.405-.26.39-.84.875-1.48 1.335-1.443 1.035-3.26 1.549-4.186 3.455a2.145 2.145 0 00-.125 1.54c.09.335.15.696.151 1.052 0 1.144-1.157 1.971-2.3 1.958-2.98-.032-4.93-2.433-5.196-5.388zm7.375 13.392c1.497-2.825 6.494-2.825 6.494-2.825 5.204-.054 5.908-3.216 6.378-4.81a15.176 15.176 0 01-12.946 13.136c-.49-1.029-1.068-3.35.074-5.503" fill="#000"/>
  <path fill-rule="evenodd" clip-rule="evenodd" d="M39.008 3.25a1.625 1.625 0 012.293-.128 23.913 23.913 0 017.99 17.866c0 12.46-9.51 22.702-21.666 23.861v1.192h2.708a1.625 1.625 0 110 3.25h-8.666a1.625 1.625 0 010-3.25h2.708v-1.103a23.913 23.913 0 01-16.92-7.969 1.625 1.625 0 112.423-2.166 20.663 20.663 0 0015.444 6.905 20.72 20.72 0 0020.72-20.72 20.664 20.664 0 00-6.908-15.444 1.625 1.625 0 01-.128-2.297" fill="#000"/>
</svg>
