<svg fill="none" xmlns="http://www.w3.org/2000/svg" viewBox="0 0 52 52">
  <path d="M4.333 26c0-10.214 0-15.32 3.172-18.495C10.681 4.333 15.786 4.333 26 4.333c10.213 0 15.32 0 18.492 3.172 3.174 3.176 3.174 8.281 3.174 18.495 0 10.213 0 15.32-3.174 18.492-3.17 3.174-8.279 3.174-18.492 3.174-10.214 0-15.32 0-18.495-3.174C4.333 41.322 4.333 36.213 4.333 26z" fill="#000"/>
  <rect x="8.667" y="17.333" width="17.333" height="3.25" rx="1.625" fill="#fff"/>
  <rect x="8.667" y="30.333" width="17.333" height="3.25" rx="1.625" fill="#fff"/>
  <rect x="8.667" y="23.833" width="13" height="3.25" rx="1.625" fill="#fff"/>
  <path fill-rule="evenodd" clip-rule="evenodd" d="M37.916 32.5a7.583 7.583 0 100-15.167 7.583 7.583 0 000 15.167zm.57-12.134a.568.568 0 10-1.138 0v.24c-1.236.222-2.275 1.151-2.275 2.414 0 1.454 1.374 2.465 2.843 2.465 1.045 0 1.707.687 1.707 1.327 0 .64-.662 1.327-1.707 1.327-1.043 0-1.706-.687-1.706-1.327a.569.569 0 10-1.137 0c0 1.264 1.038 2.192 2.275 2.414v.24a.569.569 0 101.137 0v-.24c1.236-.221 2.275-1.15 2.275-2.414 0-1.454-1.375-2.464-2.844-2.464-1.043 0-1.706-.688-1.706-1.328 0-.64.663-1.327 1.706-1.327 1.045 0 1.707.688 1.707 1.327a.569.569 0 001.137 0c0-1.263-1.039-2.192-2.275-2.413v-.24z" fill="#fff"/>
</svg>
