<svg fill="none" xmlns="http://www.w3.org/2000/svg" viewBox="0 0 55 20">
  <path d="M14.69 19.142c0 .376-.84.563-2.52.563-1.68 0-2.592-.134-2.734-.402L4.959 10.94v8.336c0 .322-.831.483-2.493.483-1.644 0-2.466-.161-2.466-.483V1.343C0 1.075.706.941 2.118.941c.554 0 1.197.054 1.93.161.75.09 1.206.268 1.367.536l4.289 8.256V1.478c0-.34.83-.51 2.492-.51s2.493.17 2.493.51v17.664zm12.154-.134c-1.126.662-2.573.992-4.343.992-1.769 0-3.26-.599-4.476-1.796-1.215-1.215-1.823-2.886-1.823-5.013 0-2.144.581-3.868 1.743-5.173 1.179-1.304 2.662-1.957 4.45-1.957 1.786 0 3.162.456 4.127 1.367.983.912 1.475 2.02 1.475 3.324 0 2.895-1.662 4.343-4.986 4.343h-1.85c0 .536.143.911.43 1.126.303.196.74.294 1.313.294 1.25 0 2.439-.285 3.565-.857.018-.018.098.107.241.375.429.768.643 1.42.643 1.957 0 .518-.17.858-.509 1.018zm-3.35-7.746c0-.751-.367-1.126-1.1-1.126-.34 0-.634.107-.884.321-.233.197-.349.492-.349.885v.83h1.448c.59 0 .884-.303.884-.91zm11.883 8.309c0 .215-.75.322-2.252.322-1.787-.072-2.68-.188-2.68-.349v-9.489h-1.367c-.358 0-.537-.616-.537-1.85 0-.321.027-.714.081-1.179.071-.464.206-.697.402-.697h1.42V3.97c0-.357.751-.536 2.252-.536 1.52 0 2.279.143 2.279.43v1.715l.027.75h2.278c.304 0 .456.626.456 1.877 0 1.25-.152 1.876-.456 1.876h-1.903v9.49zm8.073 0c0 .143-.822.215-2.466.215-1.627 0-2.44-.063-2.44-.188V6.437c0-.126.814-.188 2.44-.188 1.644 0 2.466.054 2.466.16v13.162zm7.758.134c0 .125-.813.188-2.439.188-1.626-.036-2.44-.107-2.44-.215V10.78h-.723c-.286 0-.518-.17-.697-.51-.16-.357-.241-.795-.241-1.313 0-1.93.572-2.895 1.715-2.895.804 0 1.475.25 2.01.75.537.483.805 1.037.805 1.663.375-.733.876-1.314 1.501-1.743.643-.446 1.296-.67 1.957-.67 1.036 0 1.662.268 1.876.804.054.143.08.358.08.644 0 .268-.089.76-.268 1.474-.16.715-.33 1.233-.509 1.555-.178.321-.286.482-.321.482-.036 0-.206-.062-.51-.187-.286-.143-.545-.215-.777-.215-.68 0-1.019.536-1.019 1.608v7.48z" fill="#fff"/>
  <path d="M38.495 2.59v2.296h3.484c.442 0 .996-.14 1.29-.321.296-.182.686-.685.764-1.24.078-.554.069-1.254-.105-1.802-.25-.794-.918-1.265-1.525-1.42-1.152-.218-1.984-.114-2.929.545-.738.515-.964 1.502-.979 1.941z" fill="url(#ayXcUaTBBUULa)"/>
  <defs>
    <linearGradient id="ayXcUaTBBUULa" x1="38.495" y1="2.443" x2="44.08" y2="2.443" gradientUnits="userSpaceOnUse">
      <stop offset=".022" stop-color="#FF385C"/>
      <stop offset="1" stop-color="#FF385C"/>
    </linearGradient>
  </defs>
</svg>
