<svg fill="none" xmlns="http://www.w3.org/2000/svg" viewBox="0 0 36 36">
  <path opacity=".5" d="M4.5 15.626c0-4.797 0-7.196.567-8.003.566-.806 2.82-1.578 7.33-3.122l.86-.294C15.607 3.402 16.782 3 18 3c1.216 0 2.392.402 4.743 1.207l.86.295c4.51 1.543 6.764 2.316 7.33 3.121.567.807.567 3.207.567 8.003v2.36c0 8.457-6.358 12.563-10.349 14.305C20.07 32.763 19.53 33 18 33c-1.53 0-2.07-.237-3.152-.71C10.858 30.549 4.5 26.446 4.5 17.988v-2.361z" fill="#ABAFBC"/>
  <path d="M21 13.5a3 3 0 11-6 0 3 3 0 016 0zm-3 12c6 0 6-1.343 6-3s-2.685-3-6-3-6 1.343-6 3 0 3 6 3z" fill="#000"/>
</svg>
